<?xml version="1.0" standalone="no"?>
<!DOCTYPE svg PUBLIC "-//W3C//DTD SVG 20010904//EN"
 "http://www.w3.org/TR/2001/REC-SVG-20010904/DTD/svg10.dtd">
<svg version="1.0" xmlns="http://www.w3.org/2000/svg"
 width="1024.000000pt" height="1024.000000pt" viewBox="0 0 1024.000000 1024.000000"
 preserveAspectRatio="xMidYMid meet">
<metadata>
Created by potrace 1.14, written by Peter Selinger 2001-2017
</metadata>
<g transform="translate(0.000000,1024.000000) scale(0.100000,-0.100000)"
fill="#000000" stroke="none">
<path d="M4950 9335 c-185 -55 -548 -179 -1435 -492 -242 -85 -629 -222 -860
-303 -874 -308 -2178 -776 -2435 -875 -147 -56 -199 -119 -208 -251 -6 -101
16 -164 82 -229 28 -28 67 -56 86 -62 19 -6 197 -70 395 -143 198 -72 774
-279 1280 -460 2711 -967 3185 -1130 3280 -1130 46 0 366 109 1975 675 811
285 2453 873 2839 1016 158 59 214 97 254 173 29 56 31 212 3 266 -25 48 -74
98 -118 121 -108 56 -3408 1227 -4383 1555 -583 197 -568 194 -755 139z"/>
<path d="M9210 6175 l-285 -102 -3 -1193 -2 -1193 -99 -103 c-55 -56 -112
-124 -127 -150 -61 -104 -87 -277 -60 -404 26 -125 75 -210 188 -326 l98 -101
1 -359 c0 -197 4 -543 8 -769 8 -461 9 -466 86 -534 124 -109 286 -109 410 0
76 67 77 76 86 504 4 209 8 561 8 782 l1 402 53 35 c90 57 167 166 213 301 23
67 27 97 27 180 0 182 -64 319 -213 457 l-78 73 -4 1292 c-2 844 -6 1295 -13
1302 -6 6 -112 -28 -295 -94z"/>
<path d="M2114 5768 c-13 -21 -16 -542 -6 -978 11 -473 10 -467 101 -597 139
-197 428 -370 865 -517 768 -259 1793 -360 2743 -271 1076 101 1950 412 2214
788 91 130 90 124 101 597 10 449 6 966 -8 980 -8 8 -93 -20 -689 -228 -110
-38 -629 -223 -1153 -411 l-953 -341 -206 0 -207 0 -1090 389 c-950 339 -1691
601 -1702 601 -1 0 -6 -5 -10 -12z"/>
</g>
</svg>
