<svg width="262" height="262" viewBox="0 0 262 262" fill="none" xmlns="http://www.w3.org/2000/svg">
<path d="M133.472 229.868C121.665 229.868 112.645 228.217 109.048 227.487C96.0014 224.836 70.783 219.715 52.5505 198.274C24.9661 165.835 29.2615 114.729 50.6576 80.9948C52.3323 78.3534 57.0771 70.5704 65.249 62.0993C65.3048 62.2238 65.4073 62.3273 65.5439 62.3804C66.0827 62.5916 66.6202 62.8293 67.1415 63.0866C67.2183 63.1243 67.2996 63.1425 67.3798 63.1425C67.5583 63.1425 67.7306 63.053 67.8321 62.8978C67.8436 62.8796 67.8541 62.8614 67.8637 62.8419C67.9956 62.5748 67.886 62.2518 67.6189 62.1189C67.074 61.8504 66.5122 61.6015 65.9491 61.3806C73.5272 53.6759 83.9239 45.5111 97.4123 40.1933C92.1518 43.3703 87.3504 47.5429 83.5142 52.3852C83.4288 52.43 83.3639 52.5083 83.3406 52.6062C75.9905 61.9973 72.2695 73.8732 75.8294 85.8931C76.1535 86.988 76.5455 88.1262 77.0045 89.2812C76.9707 89.3623 76.936 89.4434 76.9008 89.5245C76.7827 89.7986 76.9092 90.116 77.1825 90.2335C77.2524 90.2643 77.3245 90.2782 77.3958 90.2782C77.4028 90.2782 77.4092 90.2782 77.4155 90.2782C79.859 95.9848 83.8907 101.838 89.2507 104.176C89.7966 104.414 90.3552 104.615 90.9243 104.779C91.279 104.99 91.6596 105.184 92.0692 105.363C94.5521 106.447 99.939 107.233 104.329 107.233C106.408 107.233 108.263 107.057 109.481 106.651C119.551 103.309 126.169 94.1586 120.693 84.0124C118.939 80.7627 116.669 77.7941 115.155 74.4269C113.64 71.0584 112.95 67.062 114.494 63.7074C117.397 57.401 126.755 55.214 133.277 55.214C133.565 55.214 133.846 55.2182 134.122 55.2266C134.46 55.2378 134.796 55.2546 135.131 55.2784C138.878 57.0794 142.105 59.8928 144.435 63.5676C149.604 71.717 150.913 81.6296 150.157 91.0879C149.347 101.212 145.08 108.94 138.683 116.706C133.176 123.391 127.112 129.808 123.453 137.658C120.093 144.865 118.994 152.85 118.843 160.734C118.813 162.262 119.328 178.219 119.36 182.619C119.365 183.24 119.865 183.743 120.486 183.75C122.568 184.59 128.498 185.987 129.01 185.992C132.253 186.029 141.44 186.132 144.822 186.17C144.826 186.17 144.831 186.17 144.836 186.17C145.526 186.17 146.09 185.617 146.097 184.926C146.338 163.521 152.923 143.115 169.589 128.74C175.652 123.509 182.184 119.249 186.899 112.647C190.336 107.836 192.882 103.063 194.422 97.9955L218.841 96.8098C219.662 96.7692 220.398 96.4266 220.945 95.8897C233.218 129.323 228.615 168.769 212.48 193.309C212.274 193.316 212.067 193.32 211.86 193.32C208.434 193.32 204.883 192.43 201.172 191.54C197.46 190.649 193.59 189.759 189.522 189.759C186.837 189.759 184.066 190.147 181.198 191.179C166.228 196.568 168.292 216.889 169.132 222.327C169.251 223.093 169.84 223.693 170.593 223.837C157.246 228.501 144.207 229.868 133.472 229.868V229.868ZM128.411 227.971C128.483 227.998 128.556 228.025 128.629 228.052C130.417 228.698 136.982 228.715 139.488 228.715C139.632 228.715 139.762 228.715 139.878 228.715C149.721 228.715 155.175 220.007 155.175 210.164C155.175 200.501 145.128 193.328 135.448 193.069C134.039 192.711 132.563 192.52 131.042 192.52C121.198 192.52 113.22 200.499 113.22 210.342C113.22 219.29 119.816 226.699 128.411 227.971V227.971ZM212.754 108.575C211.87 108.575 210.991 109.178 210.88 110.248C209.237 126.193 196.89 131.765 169.649 158.903C140.953 187.49 162.515 218.764 165.48 222.76C165.684 223.034 165.986 223.213 166.324 223.259C166.384 223.267 166.443 223.271 166.502 223.271C167.31 223.271 167.929 222.502 167.72 221.687C166.018 215.084 163.132 191.849 198.337 170.653C230.251 151.438 220.607 122.164 214.418 109.618C214.065 108.904 213.408 108.575 212.754 108.575ZM61.162 101.683C61.1359 101.683 61.1093 101.686 61.0826 101.689C60.517 101.772 59.9417 101.834 59.3727 101.869C59.0754 101.887 58.8497 102.144 58.8686 102.441C58.8867 102.727 59.1238 102.947 59.4063 102.947C59.4177 102.947 59.4293 102.947 59.4408 102.946C60.0397 102.908 60.6452 102.844 61.2403 102.755C61.3997 102.732 61.5324 102.641 61.6137 102.516C61.6829 102.41 61.7149 102.279 61.6949 102.143C61.6553 101.876 61.425 101.683 61.162 101.683V101.683ZM54.7874 101.649C54.5268 101.649 54.2975 101.838 54.2553 102.104C54.2083 102.397 54.4087 102.674 54.7029 102.72C55.2961 102.816 55.9011 102.887 56.501 102.93C56.5144 102.932 56.5278 102.932 56.5411 102.932C56.7285 102.932 56.8963 102.835 56.9931 102.686C57.041 102.613 57.0715 102.526 57.0785 102.432C57.1003 102.135 56.8774 101.876 56.5803 101.855C56.0105 101.813 55.436 101.746 54.8729 101.656C54.8441 101.651 54.8156 101.649 54.7874 101.649V101.649ZM65.6331 100.51C65.5689 100.51 65.5036 100.521 65.4402 100.545C64.9068 100.749 64.3584 100.935 63.8108 101.093C63.5247 101.175 63.3602 101.476 63.4434 101.763C63.5119 101.998 63.7272 102.15 63.9612 102.15C64.0109 102.15 64.0616 102.143 64.1118 102.129C64.6883 101.963 65.2651 101.768 65.8264 101.553C65.9368 101.51 66.0254 101.435 66.0852 101.343C66.1761 101.203 66.201 101.023 66.1368 100.855C66.0544 100.641 65.85 100.51 65.6331 100.51V100.51ZM50.3308 100.419C50.1164 100.419 49.9135 100.547 49.8293 100.757C49.7187 101.034 49.8534 101.349 50.13 101.459C50.6885 101.683 51.2626 101.884 51.8366 102.059C51.8891 102.074 51.9421 102.083 51.9941 102.083C52.1759 102.083 52.347 101.991 52.4463 101.837C52.4731 101.796 52.4947 101.75 52.5098 101.701C52.5966 101.416 52.4361 101.114 52.1512 101.027C51.606 100.861 51.0608 100.669 50.5303 100.457C50.4649 100.431 50.3972 100.419 50.3308 100.419V100.419ZM69.7397 98.3913C69.6372 98.3913 69.5334 98.4192 69.4417 98.4808C68.9676 98.7954 68.473 99.096 67.972 99.3715C67.7109 99.5141 67.6154 99.8413 67.759 100.103C67.8571 100.282 68.0417 100.382 68.232 100.382C68.3198 100.382 68.4089 100.362 68.4913 100.315C69.0187 100.026 69.5393 99.7113 70.0388 99.3785C70.102 99.3365 70.1536 99.2834 70.1925 99.2233C70.3062 99.0485 70.3123 98.8164 70.1895 98.6318C70.0856 98.4752 69.9144 98.3913 69.7397 98.3913ZM46.2503 98.2459C46.0779 98.2459 45.9086 98.3284 45.8043 98.4808C45.6296 98.7269 45.7001 99.0625 45.9462 99.2303C46.0777 99.3198 46.2104 99.4079 46.3443 99.4945C46.7144 99.7365 47.0973 99.9686 47.482 100.187C47.5659 100.234 47.6572 100.257 47.7472 100.257C47.9247 100.257 48.0975 100.169 48.1996 100.012C48.2058 100.002 48.2115 99.9924 48.2169 99.9826C48.3638 99.7239 48.2727 99.3953 48.0135 99.2484C47.6477 99.0401 47.284 98.8206 46.9322 98.5912C46.8048 98.5087 46.6784 98.4234 46.5536 98.3395C46.4605 98.2752 46.3549 98.2459 46.2503 98.2459V98.2459ZM73.2815 95.4226C73.1396 95.4226 72.9975 95.4786 72.8916 95.5904C72.4983 96.0029 72.0816 96.4029 71.653 96.7818C71.4305 96.979 71.4093 97.3202 71.6063 97.5425C71.713 97.6628 71.8612 97.7257 72.011 97.7257C72.1374 97.7257 72.2652 97.6795 72.3676 97.59C72.8189 97.1915 73.2574 96.7692 73.6719 96.3344C73.6953 96.3106 73.7165 96.284 73.7341 96.256C73.8726 96.0421 73.845 95.754 73.6543 95.5723C73.5498 95.473 73.4156 95.4226 73.2815 95.4226V95.4226ZM43.3695 95.8813C43.2298 95.8813 43.0904 95.9358 42.9847 96.0435C42.7752 96.256 42.7793 96.5972 42.9916 96.8056C43.2017 97.0125 43.4185 97.2167 43.6355 97.4124C43.7387 97.5061 43.8682 97.5523 43.9971 97.5523C44.1443 97.5523 44.2909 97.4922 44.3974 97.3747C44.417 97.3523 44.4345 97.33 44.4499 97.3062C44.5918 97.088 44.5582 96.793 44.3591 96.6126C44.1529 96.4266 43.9469 96.2323 43.7474 96.0365C43.6425 95.933 43.5059 95.8813 43.3695 95.8813V95.8813ZM76.0865 91.7479C75.9029 91.7479 75.7242 91.8416 75.624 92.0094C75.326 92.5044 75.0081 92.984 74.6762 93.444C74.5025 93.6859 74.5569 94.0229 74.7977 94.1977C74.8938 94.2662 75.0038 94.2998 75.1133 94.2998C75.2807 94.2998 75.4459 94.2215 75.5511 94.0761C75.7567 93.7908 75.9587 93.4972 76.1514 93.1993C76.2863 92.9924 76.4183 92.7812 76.5475 92.5659C76.7015 92.3114 76.6197 91.98 76.3646 91.8262C76.2771 91.773 76.181 91.7479 76.0865 91.7479ZM69.8977 63.527C69.7249 63.527 69.555 63.6109 69.4508 63.7647L69.4451 63.7731C69.2854 64.0192 69.3511 64.3492 69.5948 64.5142C70.0767 64.8401 70.5488 65.1896 70.9983 65.5546C71.0986 65.6343 71.2187 65.6748 71.338 65.6748C71.4947 65.6748 71.6508 65.6063 71.7575 65.4749C71.7695 65.4595 71.7801 65.4441 71.7906 65.4287C71.939 65.1994 71.8938 64.8918 71.6776 64.7156C71.2037 64.3325 70.7066 63.9647 70.1999 63.6207C70.1072 63.5578 70.0019 63.527 69.8977 63.527V63.527ZM70.6135 59.3558C70.4979 59.3558 70.3854 59.4146 70.3276 59.5223C70.2887 59.5894 70.2502 59.6579 70.2126 59.7264C69.963 60.1753 69.7354 60.6409 69.5368 61.1107C69.4651 61.2799 69.5442 61.4757 69.7137 61.547C69.7561 61.5652 69.8001 61.5736 69.8433 61.5736C69.9543 61.5736 70.0605 61.5176 70.1227 61.4226C70.133 61.4058 70.1424 61.389 70.1501 61.3694C70.3396 60.9234 70.5567 60.4787 70.7957 60.048C70.8316 59.9823 70.8677 59.9194 70.9044 59.8564C70.9962 59.697 70.9418 59.4929 70.783 59.4006C70.73 59.3698 70.6714 59.3558 70.6135 59.3558ZM72.6967 56.5942C72.6099 56.5942 72.523 56.6277 72.4573 56.6949C72.0485 57.1171 71.6607 57.5716 71.3048 58.0428C71.196 58.1924 71.2236 58.3994 71.3704 58.5099C71.4305 58.5546 71.5012 58.577 71.5704 58.577C71.6713 58.577 71.7716 58.5308 71.8373 58.4441C72.1763 57.9939 72.5463 57.5618 72.9361 57.1591C72.9509 57.1437 72.9644 57.1255 72.9764 57.1087C73.0611 56.9773 73.0449 56.8011 72.9283 56.6879C72.8641 56.6249 72.7801 56.5942 72.6967 56.5942V56.5942ZM75.3902 54.4282C75.3302 54.4282 75.27 54.4436 75.215 54.4771C74.7137 54.7875 74.2263 55.1315 73.768 55.5007C73.6246 55.6167 73.6021 55.8251 73.7172 55.9691C73.7829 56.0502 73.8796 56.0936 73.977 56.0936C74.0506 56.0936 74.124 56.0698 74.1854 56.0195C74.6232 55.6685 75.0871 55.3399 75.5654 55.0448C75.6091 55.0183 75.6437 54.9833 75.6698 54.9428C75.7376 54.8379 75.7432 54.6995 75.6733 54.5862C75.6105 54.4841 75.5017 54.4282 75.3902 54.4282V54.4282ZM78.532 52.9865C78.4989 52.9865 78.4649 52.9907 78.4318 53.0019C77.8697 53.1809 77.3131 53.3948 76.7779 53.6409C76.6105 53.7178 76.5378 53.915 76.614 54.0828C76.6705 54.2045 76.7913 54.2772 76.917 54.2772C76.9635 54.2772 77.0109 54.2674 77.0554 54.2464C77.5666 54.0129 78.097 53.8073 78.633 53.6367C78.7093 53.613 78.7714 53.5626 78.8117 53.5011C78.864 53.42 78.8809 53.3179 78.8499 53.2186C78.8046 53.076 78.674 52.9865 78.532 52.9865V52.9865ZM81.9323 52.3503C81.9253 52.3503 81.9183 52.3503 81.9112 52.3517C81.3222 52.388 80.7298 52.4607 80.1513 52.5698C79.9706 52.6034 79.8519 52.7782 79.8851 52.9585C79.9155 53.118 80.0554 53.2298 80.2121 53.2298C80.2325 53.2298 80.2538 53.2284 80.2742 53.2242C80.8257 53.1208 81.3908 53.0508 81.9522 53.0159C82.0624 53.0089 82.1555 52.9502 82.2113 52.8649C82.2488 52.8075 82.2685 52.7376 82.2643 52.6635C82.2537 52.4859 82.1068 52.3503 81.9323 52.3503V52.3503ZM172.098 223.298C172.352 222.985 172.487 222.572 172.424 222.13C172.012 219.233 174.009 216.835 190.586 214.135C184.504 218.036 178.274 221.028 172.098 223.298V223.298ZM193.362 68.9497C191.497 63.1215 188.659 57.6275 184.698 52.9138C181.982 49.6809 178.807 46.8912 175.317 44.5379C181.896 47.7358 188.134 51.6973 193.8 56.446C198.214 60.1431 202.163 64.2094 205.671 68.5694L193.362 68.9497" fill="url(#paint0_linear_2824_3414)"/>
<path d="M166.325 223.259C165.986 223.213 165.683 223.034 165.48 222.76C162.515 218.764 140.954 187.49 169.648 158.903C196.89 131.765 209.237 126.193 210.88 110.248C211.071 108.386 213.59 107.939 214.417 109.618C220.607 122.164 230.251 151.438 198.337 170.653C163.132 191.849 166.017 215.084 167.719 221.687C167.945 222.56 167.217 223.38 166.325 223.259" fill="#91B3FA"/>
<path d="M170.692 223.853C169.89 223.744 169.256 223.126 169.132 222.327C168.292 216.889 166.227 196.568 181.198 191.179C188.409 188.584 195.011 190.062 201.172 191.54C209.094 193.439 216.285 195.34 223.1 188.582C223.737 187.95 224.808 188.501 224.657 189.386C223.578 195.661 218.776 210.197 197.407 213.121C174.537 216.252 171.962 218.875 172.424 222.13C172.566 223.134 171.696 223.99 170.692 223.853" fill="#91B3FA"/>
<path d="M164.101 218.13C163.932 218.13 163.772 218.033 163.696 217.875C161.702 213.642 160.212 209.142 159.387 204.496C158.965 202.175 158.716 199.818 158.645 197.452C158.589 195.086 158.688 192.711 158.986 190.356C159.559 185.644 160.888 181.027 162.803 176.681C164.724 172.333 167.259 168.272 170.223 164.567C173.186 160.857 176.622 157.538 180.38 154.639C182.262 153.192 184.231 151.854 186.286 150.651C188.297 149.498 190.206 148.325 192.057 146.99C195.748 144.353 199.159 141.308 202.096 137.834C203.581 136.112 204.927 134.269 206.155 132.349C207.361 130.423 208.487 128.392 209.297 126.292L209.307 126.264C209.37 126.103 209.525 126.004 209.688 126.004C209.737 126.004 209.785 126.013 209.833 126.031C210.025 126.106 210.13 126.309 210.083 126.504C209.804 127.687 209.432 128.797 208.989 129.899C208.554 131 208.053 132.073 207.506 133.124C206.425 135.231 205.127 137.224 203.705 139.123C200.841 142.912 197.379 146.241 193.562 149.063C191.658 150.466 189.622 151.756 187.611 152.921C185.652 154.058 183.767 155.329 181.962 156.705C178.349 159.458 175.073 162.652 172.18 166.154C166.416 173.164 162.326 181.624 160.979 190.631C160.292 195.124 160.284 199.725 160.903 204.256C161.514 208.792 162.807 213.234 164.512 217.517C164.605 217.746 164.494 218.005 164.266 218.098C164.212 218.12 164.156 218.13 164.101 218.13" fill="#C5D7FC"/>
<path d="M170.057 220.62C169.935 220.62 169.818 220.554 169.757 220.438C169.714 220.352 169.71 220.256 169.738 220.171L169.741 220.165C169.812 219.968 169.79 219.785 169.783 219.597L169.766 219.036L169.753 217.916C169.753 217.169 169.77 216.423 169.802 215.677C169.87 214.185 169.996 212.694 170.196 211.212C170.603 208.25 171.274 205.298 172.469 202.518C173.651 199.756 175.441 197.117 178.039 195.393C179.333 194.546 180.792 193.944 182.305 193.637C183.303 193.427 184.318 193.335 185.331 193.335C185.852 193.335 186.372 193.36 186.89 193.405C192.843 194.095 198.678 195.237 204.529 196.164C206.596 196.472 208.684 196.756 210.743 196.756C211.588 196.756 212.428 196.708 213.26 196.595C213.972 196.491 214.672 196.335 215.353 196.117C216.026 195.881 216.687 195.607 217.306 195.244C218.55 194.534 219.644 193.562 220.622 192.485L220.624 192.481C220.696 192.403 220.795 192.362 220.895 192.362C220.98 192.362 221.067 192.394 221.138 192.456C221.284 192.589 221.296 192.814 221.167 192.963C220.178 194.104 219.045 195.158 217.722 195.952C217.065 196.356 216.356 196.671 215.634 196.939C214.903 197.191 214.154 197.374 213.398 197.501C212.423 197.644 211.451 197.702 210.483 197.702C208.426 197.702 206.387 197.439 204.381 197.164C201.426 196.743 198.506 196.195 195.577 195.721C192.657 195.246 189.701 194.786 186.793 194.445C186.26 194.393 185.723 194.366 185.19 194.366C184.286 194.366 183.387 194.445 182.507 194.622C181.105 194.893 179.765 195.434 178.566 196.202C176.148 197.742 174.395 200.191 173.204 202.842C171.999 205.507 171.283 208.392 170.83 211.303C170.606 212.761 170.453 214.231 170.36 215.707C170.314 216.444 170.286 217.182 170.271 217.921L170.262 219.029L170.269 219.582C170.275 219.766 170.265 219.954 170.356 220.128C170.442 220.293 170.378 220.497 170.212 220.582C170.163 220.608 170.11 220.62 170.057 220.62" fill="#C5D7FC"/>
<path d="M144.836 186.17C144.83 186.17 144.826 186.17 144.821 186.17C141.44 186.132 132.253 186.029 129.01 185.993C128.498 185.987 122.568 184.59 120.486 183.75C120.486 183.75 120.486 183.75 120.487 183.75C123.73 183.787 132.917 183.889 136.298 183.926C136.303 183.927 136.307 183.927 136.312 183.927C137.002 183.927 137.567 183.374 137.574 182.683C137.815 161.279 144.399 140.872 161.066 126.497C167.129 121.266 173.661 117.006 178.376 110.404C181.196 106.457 183.417 102.534 184.973 98.4542L194.422 97.9951C192.881 103.064 190.336 107.835 186.898 112.647C182.183 119.249 175.653 123.509 169.588 128.74C152.922 143.115 146.338 163.521 146.097 184.926C146.09 185.617 145.525 186.17 144.836 186.17V186.17ZM104.329 107.232C99.939 107.232 94.5521 106.447 92.0691 105.364C91.6595 105.185 91.2789 104.99 90.9243 104.78C92.3049 105.178 93.7436 105.364 95.1891 105.364C97.1411 105.364 99.1057 105.024 100.958 104.409C111.028 101.066 117.646 91.9152 112.17 81.7696C110.416 78.5195 108.146 75.5524 106.632 72.1845C105.118 68.8165 104.427 64.8187 105.971 61.4646C108.874 55.1586 118.232 52.9725 124.753 52.9725C125.041 52.9725 125.323 52.9767 125.599 52.985C128.974 53.0862 132.21 53.8755 135.131 55.2793C134.796 55.2544 134.46 55.2377 134.122 55.228C133.846 55.2197 133.565 55.2155 133.276 55.2155C126.755 55.2155 117.397 57.4017 114.494 63.7076C112.95 67.0617 113.64 71.0595 115.155 74.4275C116.669 77.7941 118.939 80.7626 120.693 84.0126C126.169 94.1596 119.551 103.309 109.481 106.652C108.263 107.057 106.408 107.232 104.329 107.232V107.232ZM185.571 69.191C183.751 62.4453 180.694 56.0492 176.176 50.6712C170.343 43.73 162.389 38.8333 153.772 35.8954C154.213 35.9814 154.651 36.0688 155.087 36.1617C162.26 37.6737 169.259 40.4507 175.317 44.5373C178.806 46.8913 181.982 49.6808 184.698 52.9142C188.659 57.6278 191.497 63.1222 193.362 68.951L185.571 69.191" fill="url(#paint1_linear_2824_3414)"/>
<path d="M139.488 228.715C136.982 228.715 130.417 228.698 128.629 228.052C128.556 228.025 128.483 227.998 128.411 227.971C129.27 228.098 130.148 228.164 131.042 228.164C140.884 228.164 148.863 220.185 148.863 210.342C148.863 202.021 143.16 195.031 135.449 193.069C145.128 193.328 155.176 200.501 155.176 210.164C155.176 220.007 149.721 228.715 139.877 228.715C139.762 228.715 139.632 228.715 139.488 228.715" fill="url(#paint2_linear_2824_3414)"/>
<path d="M136.313 183.927C136.308 183.927 136.303 183.927 136.298 183.926C132.917 183.889 123.73 183.786 120.487 183.75C120.487 183.75 120.487 183.75 120.486 183.75C119.865 183.743 119.365 183.24 119.36 182.619C119.328 178.22 118.813 162.262 118.843 160.734C118.994 152.85 120.093 144.865 123.453 137.658C127.112 129.808 133.176 123.391 138.683 116.705C145.079 108.941 149.346 101.211 150.157 91.0885C150.913 81.6287 149.604 71.7176 144.436 63.5679C142.105 59.8928 138.878 57.0794 135.131 55.2785C132.21 53.8754 128.975 53.087 125.599 52.9841C125.323 52.9756 125.042 52.9714 124.754 52.9714C118.232 52.9714 108.874 55.1587 105.971 61.4638C104.427 64.8187 105.118 68.8167 106.632 72.1844C108.146 75.552 110.416 78.5191 112.17 81.7683C117.646 91.9163 111.028 101.066 100.958 104.41C99.1058 105.024 97.1411 105.364 95.1892 105.364C93.7436 105.364 92.3051 105.177 90.9245 104.779C90.3554 104.615 89.7968 104.415 89.2509 104.177C83.8907 101.839 79.8591 95.9848 77.4156 90.2776C77.588 90.272 77.7511 90.1818 77.8479 90.0323C77.8648 90.0083 77.8789 89.9801 77.8916 89.9519C78.1296 89.3991 78.3471 88.8307 78.5378 88.2624C78.6324 87.979 78.4799 87.673 78.1973 87.5785C78.1409 87.5601 78.083 87.5503 78.0265 87.5503C77.8005 87.5503 77.5894 87.6927 77.5152 87.9197C77.3619 88.3767 77.1904 88.8336 77.0047 89.2806C76.5457 88.1256 76.1536 86.9876 75.8295 85.8932C72.2696 73.8724 75.9905 61.9983 83.3406 52.6061C83.3363 52.6245 83.3335 52.6442 83.3321 52.6626C83.3208 52.8459 83.4607 53.0038 83.6443 53.0165C84.2058 53.0504 84.7707 53.1209 85.3229 53.2252C85.3441 53.2281 85.3647 53.2309 85.3851 53.2309C85.4988 53.2309 85.6033 53.1716 85.6641 53.0786C85.6873 53.0433 85.7036 53.0024 85.712 52.9587C85.7459 52.7782 85.6266 52.6033 85.4458 52.5695C84.8667 52.4609 84.2743 52.3876 83.6852 52.3509C83.6782 52.3509 83.6711 52.3509 83.6641 52.3509C83.6104 52.3509 83.5596 52.3636 83.5143 52.3862C87.3504 47.5434 92.1518 43.3705 97.4124 40.1947C99.5719 38.8902 101.81 37.7536 104.089 36.8073C111.905 33.5652 120.715 32.1324 129.476 32.1324C129.688 32.1324 129.9 32.1338 130.111 32.1352C135.718 32.179 141.294 32.8065 146.564 33.9177C148.998 34.4311 151.409 35.0897 153.773 35.8949C162.39 38.8324 170.343 43.7287 176.176 50.6713C180.694 56.0485 183.75 62.4439 185.571 69.1919L165.616 69.8096C163.155 69.8857 161.201 71.9009 161.201 74.3618V92.7089L151.514 102.617L163.133 99.5132L163.106 99.4188C163.289 99.4611 163.48 99.4836 163.676 99.4836C163.717 99.4836 163.757 99.4836 163.798 99.4808L184.973 98.4542C183.416 102.534 181.196 106.456 178.376 110.404C173.66 117.006 167.129 121.266 161.065 126.497C144.399 140.872 137.815 161.279 137.575 182.683C137.567 183.374 137.002 183.927 136.313 183.927V183.927ZM82.9734 87.5418C82.9466 87.5418 82.9191 87.5474 82.8923 87.5573C82.7735 87.6024 82.715 87.7336 82.7601 87.852C83.9543 90.9771 85.2389 92.7526 85.2926 92.8259C85.3377 92.888 85.407 92.9204 85.4776 92.9204C85.5242 92.9204 85.5716 92.9063 85.6125 92.8767C85.7141 92.8006 85.7368 92.6581 85.662 92.5566C85.6491 92.5382 84.3583 90.7529 83.1874 87.6885C83.1527 87.5982 83.0652 87.5418 82.9734 87.5418ZM78.9982 83.0305C78.7249 83.0305 78.4912 83.2378 78.4629 83.5156C78.4051 84.0839 78.3224 84.6565 78.2172 85.2177C78.1621 85.5097 78.3549 85.7917 78.6479 85.8467C78.6819 85.8523 78.715 85.8552 78.7482 85.8552C78.9326 85.8552 79.102 85.7607 79.2001 85.6112C79.2369 85.5534 79.2637 85.4885 79.2771 85.4152C79.388 84.8257 79.4749 84.2221 79.5356 83.6256C79.566 83.328 79.3499 83.0643 79.054 83.0333C79.035 83.0319 79.0165 83.0305 78.9982 83.0305V83.0305ZM81.0377 80.956C81.1585 81.9263 81.3201 82.8316 81.5059 83.6679C81.5293 83.7737 81.6239 83.847 81.7284 83.847C81.7453 83.847 81.7615 83.8456 81.7785 83.8414C81.9014 83.8146 81.9798 83.6919 81.9522 83.5678C81.7792 82.7879 81.6274 81.946 81.5102 81.0463C81.9303 81.0829 82.3548 81.1013 82.7778 81.1013C82.8301 81.1013 82.883 81.1013 82.936 81.1013C83.0518 81.0999 83.1527 81.0392 83.2114 80.949C83.2459 80.8968 83.2658 80.8319 83.2651 80.7642C83.263 80.5809 83.1147 80.4342 82.9318 80.4342C82.9311 80.4342 82.9296 80.4342 82.9282 80.4342C82.8759 80.4356 82.8244 80.4356 82.7721 80.4356C82.3244 80.4356 81.8745 80.4131 81.4304 80.3694C80.8526 74.9259 81.6183 67.5701 86.681 59.3922C87.6789 57.7803 88.7444 56.2586 89.8743 54.8273C89.8893 54.9189 89.9422 55.0035 90.0276 55.0571C90.1117 55.1093 90.195 55.1615 90.2769 55.2151C90.666 55.4675 91.0466 55.7439 91.4082 56.0358C91.4704 56.0852 91.5439 56.1092 91.6172 56.1092C91.7148 56.1092 91.8107 56.0668 91.8771 55.9851C91.8842 55.9752 91.8905 55.9667 91.897 55.9568C91.9887 55.8158 91.9605 55.624 91.8264 55.5169C91.4472 55.2108 91.0481 54.9218 90.6399 54.6566C90.5538 54.6002 90.4669 54.5452 90.3793 54.4916C90.327 54.4592 90.2692 54.4437 90.2119 54.4437C90.2006 54.4437 90.1901 54.4451 90.1788 54.4451C98.9215 43.6117 111.483 38.0681 126.897 38.0681C134.568 38.0681 142.947 39.4416 151.913 42.2198C151.935 42.2268 151.958 42.2297 151.979 42.2297C152.077 42.2297 152.168 42.1676 152.199 42.0689C152.236 41.949 152.168 41.8207 152.047 41.7826C143.009 38.9819 134.582 37.5801 126.843 37.5801C121.415 37.5801 116.324 38.2697 111.599 39.6503C100.877 42.7853 92.3624 49.3457 86.2926 59.151C81.1501 67.4587 80.3852 74.9343 80.9806 80.4624C80.936 80.5118 80.9064 80.5752 80.8986 80.6458C80.8845 80.7713 80.9416 80.8883 81.0377 80.956V80.956ZM79.0428 79.2919C79.0285 79.2919 79.0144 79.2919 79.0003 79.2934C78.7037 79.3173 78.4813 79.5754 78.5046 79.873C78.5265 80.1522 78.542 80.4356 78.5526 80.712C78.5631 81.0026 78.8019 81.231 79.0907 81.231C79.0978 81.231 79.1041 81.231 79.1113 81.231C79.2934 81.224 79.4516 81.1281 79.5434 80.9856C79.6021 80.8954 79.6345 80.7868 79.6303 80.6726C79.6197 80.3806 79.6028 80.0845 79.5802 79.7898C79.5575 79.5077 79.3217 79.2919 79.0428 79.2919ZM86.3053 79.9872C86.2777 79.9872 86.2502 79.99 86.222 79.9971C85.6852 80.1353 85.1358 80.2424 84.5885 80.3158C84.4063 80.3397 84.2778 80.5076 84.3025 80.6895C84.3244 80.8573 84.4678 80.9786 84.6316 80.9786C84.6464 80.9786 84.6613 80.9786 84.6761 80.9758C85.2502 80.8996 85.8264 80.7868 86.3887 80.6415C86.4727 80.6204 86.5404 80.5682 86.5843 80.5019C86.6336 80.4258 86.6519 80.3299 86.628 80.2368C86.5892 80.0859 86.4535 79.9872 86.3053 79.9872ZM89.4711 78.7448C89.4175 78.7448 89.3638 78.7575 89.3136 78.7843C88.8271 79.0466 88.3194 79.2821 87.8045 79.4837C87.6329 79.5514 87.5481 79.7446 87.616 79.9153C87.6669 80.0464 87.7932 80.1268 87.9259 80.1268C87.9663 80.1268 88.0072 80.1198 88.0475 80.1042C88.5869 79.8927 89.1194 79.6459 89.6301 79.3709C89.6801 79.3427 89.7212 79.3046 89.7508 79.2595C89.8151 79.1608 89.8243 79.0296 89.7649 78.9196C89.7042 78.8082 89.5897 78.7448 89.4711 78.7448ZM92.2472 76.7803C92.1674 76.7803 92.087 76.8085 92.0234 76.8663C91.6123 77.2386 91.1767 77.5884 90.7261 77.9085C90.5756 78.0157 90.5404 78.223 90.647 78.3725C90.712 78.4641 90.8144 78.5135 90.9189 78.5135C90.9853 78.5135 91.053 78.4938 91.111 78.4514C91.5834 78.1172 92.041 77.7506 92.4711 77.3599C92.4923 77.3402 92.5113 77.3176 92.5261 77.2937C92.6066 77.1696 92.5975 77.0031 92.4937 76.8889C92.428 76.817 92.3376 76.7803 92.2472 76.7803V76.7803ZM94.4653 74.201C94.358 74.201 94.2528 74.2532 94.1885 74.3491C93.8806 74.8102 93.5423 75.2559 93.1823 75.6733C93.0643 75.8129 93.0784 76.023 93.2176 76.1429C93.2804 76.1979 93.358 76.2233 93.435 76.2233C93.5282 76.2233 93.6214 76.1852 93.6879 76.1076C94.065 75.6691 94.4195 75.2023 94.7422 74.72L94.745 74.7157C94.8438 74.5634 94.8022 74.359 94.6503 74.2574C94.5939 74.2193 94.5296 74.201 94.4653 74.201ZM96.0049 71.1662C95.8687 71.1662 95.7407 71.2508 95.6914 71.3848C95.5021 71.9052 95.2789 72.4185 95.029 72.9121C94.9457 73.0771 95.0112 73.2773 95.1751 73.3591C95.2239 73.3845 95.2754 73.3958 95.3256 73.3958C95.4357 73.3958 95.5423 73.3408 95.6052 73.2449C95.6116 73.235 95.6172 73.2251 95.6228 73.2138C95.8856 72.6963 96.1192 72.1576 96.3171 71.6132C96.3799 71.4398 96.2909 71.2494 96.1178 71.1859C96.0805 71.1718 96.0424 71.1662 96.0049 71.1662V71.1662ZM96.7682 67.8507C96.6003 67.8507 96.4554 67.9777 96.4371 68.1483C96.3799 68.6983 96.2873 69.2511 96.1631 69.7898C96.1221 69.9689 96.2338 70.148 96.4131 70.1889C96.4385 70.1945 96.4632 70.1974 96.4879 70.1974C96.601 70.1974 96.7062 70.1395 96.7668 70.0465C96.7881 70.014 96.8036 69.9788 96.8128 69.9393C96.9427 69.3738 97.0394 68.7942 97.0995 68.2174C97.1192 68.0355 96.9858 67.8719 96.8029 67.8521C96.7916 67.8507 96.7802 67.8507 96.7682 67.8507V67.8507ZM96.8029 65.301C96.7938 65.301 96.7853 65.301 96.7768 65.301C96.5939 65.3165 96.4562 65.4759 96.4703 65.6592C96.4907 65.9258 96.5042 66.1994 96.5092 66.4715C96.5127 66.6534 96.6609 66.7987 96.8424 66.7987C96.8445 66.7987 96.8466 66.7987 96.8488 66.7987C96.9633 66.7959 97.0635 66.7352 97.1221 66.6464C97.1568 66.5928 97.1765 66.5279 97.1758 66.4588C97.1702 66.174 97.1568 65.8877 97.1349 65.6085C97.1207 65.4336 96.9753 65.301 96.8029 65.301V65.301ZM92.8969 56.6112C92.8135 56.6112 92.7296 56.6422 92.6653 56.7043C92.5318 56.8326 92.5296 57.0427 92.6576 57.1753C92.8447 57.3699 93.029 57.5716 93.2049 57.776C93.2706 57.8536 93.3637 57.8917 93.4577 57.8917C93.5346 57.8917 93.6116 57.8663 93.6745 57.8127C93.6992 57.7901 93.7196 57.7662 93.7365 57.7408C93.8149 57.6195 93.8086 57.4573 93.7104 57.3417C93.5261 57.1273 93.3326 56.9158 93.1363 56.7127C93.0706 56.645 92.9837 56.6112 92.8969 56.6112ZM87.0651 52.9897C86.9238 52.9897 86.7932 53.08 86.748 53.221C86.6916 53.3959 86.7876 53.5834 86.9635 53.6398C87.4981 53.8119 88.0276 54.0178 88.539 54.2547C88.5841 54.2759 88.6315 54.2857 88.6782 54.2857C88.789 54.2857 88.8949 54.2307 88.9577 54.1348C88.9663 54.1207 88.974 54.1066 88.9811 54.0925C89.0581 53.9247 88.9853 53.7273 88.8186 53.6497C88.2826 53.4015 87.7268 53.1857 87.1668 53.0052C87.133 52.9954 87.099 52.9897 87.0651 52.9897" fill="url(#paint3_linear_2824_3414)"/>
<path d="M131.042 228.164C130.147 228.164 129.27 228.098 128.411 227.971C119.816 226.699 113.22 219.29 113.22 210.342C113.22 200.499 121.198 192.52 131.042 192.52C132.563 192.52 134.039 192.711 135.448 193.069C143.16 195.03 148.863 202.02 148.863 210.342C148.863 220.184 140.885 228.164 131.042 228.164ZM124.801 198.478C124.764 198.478 124.726 198.487 124.692 198.506C120.325 200.853 117.613 205.388 117.613 210.342C117.613 214.81 119.826 218.973 123.534 221.478C123.572 221.504 123.617 221.516 123.661 221.516C123.734 221.516 123.807 221.481 123.85 221.416C123.922 221.312 123.893 221.169 123.789 221.098C120.207 218.679 118.069 214.658 118.069 210.342C118.069 205.557 120.69 201.176 124.909 198.908C125.02 198.849 125.062 198.71 125.002 198.599C124.96 198.522 124.882 198.478 124.801 198.478V198.478ZM131.042 196.912C130.916 196.912 130.812 197.015 130.812 197.141C130.812 197.268 130.916 197.37 131.042 197.37C133.104 197.37 135.075 197.84 136.901 198.766C136.935 198.783 136.97 198.791 137.004 198.791C137.088 198.791 137.169 198.745 137.209 198.665C137.265 198.553 137.222 198.415 137.108 198.358C135.217 197.399 133.176 196.912 131.042 196.912Z" fill="url(#paint4_linear_2824_3414)"/>
<path d="M81.7287 83.8459C81.624 83.8459 81.5294 83.773 81.5062 83.667C81.3204 82.8312 81.1587 81.9253 81.0379 80.9546C81.0824 80.9863 81.1354 81.007 81.1934 81.0138C81.2985 81.0262 81.4044 81.0359 81.5104 81.0455C81.6276 81.9446 81.7795 82.7872 81.9525 83.5678C81.9801 83.6917 81.9016 83.8143 81.7788 83.8404C81.7618 83.8446 81.7456 83.8459 81.7287 83.8459V83.8459ZM80.9808 80.4617C80.3854 74.9338 81.1503 67.4577 86.2928 59.1514C92.3626 49.3457 100.877 42.7852 111.599 39.6502C116.325 38.2693 121.415 37.5795 126.843 37.5795C134.583 37.5795 143.01 38.9811 152.048 41.7829C152.168 41.8201 152.236 41.9481 152.199 42.0679C152.168 42.167 152.077 42.2304 151.98 42.2304C151.958 42.2304 151.936 42.2262 151.914 42.2194C142.948 39.441 134.569 38.0683 126.897 38.0683C111.483 38.0683 98.9218 43.6113 90.179 54.4455C90.0766 54.4551 89.9792 54.5115 89.9206 54.5983C89.8768 54.6685 89.8626 54.7497 89.8746 54.8268C88.7448 56.2574 87.6791 57.7801 86.6812 59.391C81.6185 67.5706 80.8529 74.9242 81.4306 80.3695C81.3762 80.3626 81.3211 80.3571 81.2667 80.3516C81.2541 80.3502 81.2421 80.3502 81.2301 80.3502C81.1326 80.3502 81.0422 80.3929 80.9808 80.4617" fill="url(#paint5_linear_2824_3414)"/>
<path d="M85.4776 92.9202C85.407 92.9202 85.3377 92.887 85.2926 92.826C85.2388 92.7521 83.9543 90.9776 82.7602 87.8523C82.7149 87.7335 82.7735 87.6019 82.8922 87.5569C82.919 87.5473 82.9466 87.5419 82.9734 87.5419C83.0652 87.5419 83.1527 87.5976 83.1874 87.6886C84.3583 90.7528 85.6492 92.5381 85.6619 92.5563C85.7367 92.6579 85.7142 92.8014 85.6125 92.8763C85.5715 92.9052 85.5242 92.9202 85.4776 92.9202Z" fill="url(#paint6_linear_2824_3414)"/>
<path d="M137.005 198.791C136.971 198.791 136.935 198.783 136.902 198.766C135.075 197.84 133.104 197.37 131.042 197.37C130.915 197.37 130.813 197.268 130.813 197.141C130.813 197.015 130.915 196.912 131.042 196.912C133.177 196.912 135.218 197.399 137.109 198.358C137.222 198.415 137.266 198.553 137.209 198.665C137.169 198.745 137.089 198.791 137.005 198.791Z" fill="url(#paint7_linear_2824_3414)"/>
<path d="M123.661 221.516C123.617 221.516 123.572 221.504 123.533 221.477C119.826 218.973 117.613 214.81 117.613 210.341C117.613 205.388 120.326 200.853 124.692 198.505C124.727 198.487 124.764 198.478 124.801 198.478C124.883 198.478 124.961 198.522 125.002 198.599C125.063 198.71 125.021 198.849 124.909 198.908C120.691 201.176 118.069 205.557 118.069 210.341C118.069 214.658 120.208 218.679 123.79 221.098C123.894 221.169 123.922 221.312 123.851 221.416C123.807 221.481 123.735 221.516 123.661 221.516Z" fill="url(#paint8_linear_2824_3414)"/>
<path d="M37.3293 78.8438C37.3024 78.8438 37.2753 78.8413 37.2481 78.8365C36.9535 78.7928 36.7508 78.5176 36.7952 78.2229C36.8862 77.6202 37.0049 77.0127 37.148 76.4174C37.2074 76.17 37.4284 76.0039 37.6719 76.0039C37.7137 76.0039 37.7561 76.0099 37.7986 76.0196C38.0879 76.0887 38.2663 76.3798 38.1967 76.6696C38.0609 77.2346 37.9482 77.8118 37.8619 78.3842C37.85 78.463 37.8217 78.5345 37.7811 78.5976C37.6835 78.7467 37.5143 78.8438 37.3293 78.8438V78.8438ZM38.5491 74.305C38.4833 74.305 38.4164 74.2929 38.3515 74.2674C38.0744 74.1583 37.9384 73.8454 38.0475 73.5678C38.2715 73.0015 38.5229 72.4352 38.7942 71.8871C38.8876 71.6979 39.0787 71.5876 39.2772 71.5876C39.358 71.5876 39.4399 71.6058 39.5172 71.6446C39.7838 71.7768 39.893 72.0993 39.7607 72.3673C39.5026 72.8875 39.2638 73.4247 39.0512 73.9643C39.0376 73.9994 39.0206 74.031 39.0012 74.0601C38.9011 74.2153 38.7292 74.305 38.5491 74.305V74.305ZM40.7465 70.1519C40.6421 70.1519 40.5366 70.1216 40.4437 70.0585C40.2007 69.8924 40.1352 69.5638 40.2947 69.3188L40.3011 69.3091C40.6448 68.8035 41.0141 68.3075 41.3988 67.8346C41.5055 67.7024 41.6609 67.6345 41.8177 67.6345C41.9374 67.6345 42.0577 67.6745 42.1577 67.7558C42.3735 67.9316 42.4183 68.2396 42.27 68.4676C42.2596 68.4833 42.2482 68.4991 42.2361 68.5149C41.8705 68.9635 41.5195 69.4352 41.193 69.9154C41.0887 70.0694 40.9191 70.1519 40.7465 70.1519V70.1519ZM43.8071 66.5881C43.6624 66.5881 43.5181 66.5299 43.4119 66.4159C43.2091 66.1976 43.2229 65.8569 43.4402 65.6532C43.8875 65.2372 44.3584 64.8371 44.8399 64.4612C44.9383 64.3848 45.0551 64.3472 45.1711 64.3472C45.3317 64.3472 45.4904 64.4187 45.5968 64.5545C45.7422 64.7413 45.7458 64.9935 45.6238 65.1802C45.5922 65.23 45.5517 65.2736 45.5032 65.3112C45.0461 65.6677 44.5989 66.0485 44.1742 66.4438C44.0704 66.5396 43.9385 66.5881 43.8071 66.5881Z" fill="#DEE8FD"/>
<path d="M71.3381 65.6743C71.2188 65.6743 71.0987 65.6354 70.9984 65.5538C70.5488 65.1897 70.0768 64.8402 69.595 64.5139C69.3513 64.3483 69.2856 64.0196 69.4452 63.7736L69.4509 63.7651C69.5551 63.6104 69.725 63.5277 69.8979 63.5277C70.002 63.5277 70.1072 63.5581 70.2 63.6202C70.7068 63.9636 71.2039 64.3325 71.6778 64.716C71.8938 64.8914 71.9391 65.1994 71.7908 65.4284C71.7802 65.4442 71.7696 65.4588 71.7576 65.4746C71.6509 65.6061 71.4949 65.6743 71.3381 65.6743" fill="url(#paint9_linear_2824_3414)"/>
<path d="M47.5856 63.7991C47.3991 63.7991 47.2176 63.7018 47.1179 63.5295C46.9691 63.2709 47.0575 62.941 47.3156 62.7921C47.8445 62.4868 48.393 62.2012 48.9459 61.9426C49.0199 61.9069 49.0977 61.8909 49.1744 61.8909C49.3772 61.8909 49.5713 62.0054 49.6631 62.2012C49.7452 62.3772 49.7248 62.5742 49.6267 62.7244C49.5736 62.8068 49.4982 62.8746 49.4035 62.9189C48.8782 63.1651 48.3572 63.4371 47.8546 63.7264C47.7696 63.7757 47.6769 63.7991 47.5856 63.7991V63.7991ZM65.2494 62.099C65.1919 61.971 65.1839 61.822 65.2389 61.6804C65.3234 61.4674 65.5261 61.3382 65.7412 61.3382C65.8067 61.3382 65.8733 61.3505 65.9382 61.3751C65.942 61.3776 65.9458 61.3788 65.9496 61.3801C65.7134 61.6201 65.4802 61.8602 65.2494 62.099Z" fill="#DEE8FD"/>
<path d="M67.3798 63.1421C67.2996 63.1421 67.2183 63.1249 67.1415 63.0867C66.6201 62.8295 66.0828 62.5919 65.5439 62.3802C65.4074 62.3273 65.3048 62.2239 65.249 62.0996C65.4798 61.8608 65.7129 61.6208 65.9492 61.3808C66.5122 61.6024 67.0739 61.8498 67.6189 62.1193C67.886 62.251 67.9957 62.5747 67.8638 62.8418C67.8541 62.8615 67.8435 62.8799 67.8321 62.8972C67.7307 63.0535 67.5584 63.1421 67.3798 63.1421" fill="url(#paint10_linear_2824_3414)"/>
<path d="M51.8902 61.9192C51.6599 61.9192 51.4466 61.7716 51.3751 61.5398C51.287 61.2546 51.4465 60.9533 51.7312 60.8653C52.3154 60.6843 52.9136 60.5268 53.5092 60.3966C53.548 60.3879 53.5866 60.3842 53.625 60.3842C53.8728 60.3842 54.096 60.5566 54.151 60.8083C54.1832 60.9546 54.1523 61.1009 54.0764 61.2174C54.0018 61.3327 53.8838 61.4195 53.7394 61.4505C53.1735 61.5745 52.605 61.7233 52.0497 61.8956C51.9966 61.9117 51.9429 61.9192 51.8902 61.9192ZM62.9631 61.546C62.9216 61.546 62.8795 61.541 62.8375 61.5311C62.2734 61.396 61.6968 61.2844 61.1229 61.1988C60.8285 61.1554 60.6251 60.8814 60.6691 60.5863C60.7093 60.3185 60.9394 60.1263 61.2022 60.1263C61.2286 60.1263 61.2552 60.1288 61.2821 60.1325C61.8863 60.223 62.4938 60.3396 63.0877 60.4822C63.3774 60.5503 63.5562 60.8417 63.4873 61.1319C63.4725 61.1939 63.4477 61.2496 63.415 61.3005C63.3164 61.4517 63.1462 61.546 62.9631 61.546V61.546ZM56.5052 61.0389C56.2261 61.0389 55.9898 60.8244 55.968 60.5417C55.9453 60.2441 56.1675 59.985 56.4642 59.9614C57.0138 59.9192 57.5713 59.8982 58.1239 59.8982C58.1835 59.8982 58.2429 59.8982 58.3024 59.8994C58.6004 59.9019 58.8398 60.1449 58.8372 60.4425C58.8362 60.5491 58.8046 60.6483 58.7505 60.7314C58.6542 60.8802 58.4872 60.9781 58.2978 60.9781C58.2964 60.9781 58.295 60.9781 58.2935 60.9781C58.2349 60.9769 58.1761 60.9769 58.1173 60.9769C57.5942 60.9769 57.067 60.9967 56.5471 61.0376C56.5331 61.0389 56.5191 61.0389 56.5052 61.0389" fill="#DEE8FD"/>
<path d="M37.1041 82.6235C36.8144 82.6235 36.5747 82.3933 36.5656 82.1007C36.5564 81.8082 36.5531 81.5112 36.5559 81.2175C36.5581 80.9205 36.7994 80.6824 37.0948 80.6824C37.0966 80.6824 37.0984 80.6824 37.1002 80.6824C37.398 80.6858 37.6372 80.9294 37.6343 81.2264C37.6319 81.5067 37.6349 81.7893 37.6438 82.0673C37.6473 82.1819 37.6151 82.2887 37.5571 82.3777C37.4643 82.5212 37.3051 82.618 37.1214 82.6235C37.1156 82.6235 37.1098 82.6235 37.1041 82.6235Z" fill="#DEE8FD"/>
<path d="M43.9972 97.553C43.8683 97.553 43.7388 97.5061 43.6357 97.4123C43.4185 97.2167 43.2018 97.0118 42.9917 96.806C42.7794 96.597 42.7753 96.2566 42.9849 96.0437C43.0906 95.9356 43.23 95.8816 43.3697 95.8816C43.5061 95.8816 43.6426 95.9336 43.7476 96.0365C43.947 96.2322 44.153 96.4258 44.3593 96.6123C44.5584 96.7927 44.5919 97.0883 44.4501 97.3063C44.4347 97.3298 44.4172 97.3522 44.3976 97.3746C44.2911 97.4928 44.1444 97.553 43.9972 97.553" fill="url(#paint11_linear_2824_3414)"/>
<path d="M59.4065 102.946C59.1241 102.946 58.887 102.727 58.8689 102.441C58.85 102.144 59.0758 101.888 59.3729 101.869C59.9419 101.833 60.5172 101.772 61.0829 101.689C61.1096 101.684 61.1361 101.682 61.1623 101.682C61.4253 101.682 61.6556 101.875 61.6951 102.143C61.7152 102.279 61.6831 102.409 61.614 102.516C61.5327 102.641 61.4 102.732 61.2406 102.756C60.6455 102.844 60.0401 102.907 59.4412 102.945C59.4296 102.946 59.418 102.946 59.4065 102.946ZM56.5414 102.931C56.5281 102.931 56.5147 102.931 56.5012 102.929C55.9014 102.886 55.2963 102.815 54.7032 102.721C54.409 102.674 54.2085 102.397 54.2555 102.104C54.2978 101.838 54.5272 101.648 54.7877 101.648C54.8159 101.648 54.8444 101.65 54.8732 101.656C55.4363 101.746 56.0107 101.812 56.5806 101.854C56.8777 101.876 57.1006 102.135 57.0788 102.431C57.0718 102.526 57.0413 102.611 56.9934 102.686C56.8967 102.834 56.7287 102.931 56.5414 102.931ZM63.9614 102.15C63.7276 102.15 63.5122 101.998 63.4436 101.762C63.3604 101.474 63.525 101.176 63.8112 101.093C64.3588 100.934 64.9071 100.749 65.4404 100.545C65.5039 100.52 65.5692 100.509 65.6334 100.509C65.8503 100.509 66.0547 100.641 66.1372 100.855C66.2013 101.023 66.1764 101.203 66.0855 101.343C66.0256 101.434 65.9371 101.509 65.8267 101.552C65.2654 101.767 64.6886 101.962 64.1121 102.129C64.0619 102.143 64.0112 102.15 63.9614 102.15V102.15ZM51.9944 102.083C51.9423 102.083 51.8894 102.074 51.8368 102.058C51.2628 101.883 50.6888 101.682 50.1302 101.459C49.8537 101.347 49.7189 101.035 49.8297 100.757C49.9138 100.547 50.1167 100.418 50.331 100.418C50.3975 100.418 50.465 100.431 50.5305 100.456C51.0611 100.669 51.6063 100.861 52.1514 101.026C52.4364 101.113 52.5969 101.415 52.5101 101.7C52.495 101.75 52.4733 101.796 52.4465 101.837C52.3472 101.989 52.1762 102.083 51.9944 102.083V102.083ZM68.2324 100.382C68.042 100.382 67.8575 100.281 67.7594 100.102C67.6157 99.8416 67.7112 99.5141 67.9723 99.37C68.4732 99.0945 68.9678 98.7957 69.4421 98.4799C69.5338 98.4195 69.6375 98.3899 69.74 98.3899C69.9147 98.3899 70.0859 98.4746 70.1899 98.6315C70.3127 98.8158 70.3065 99.0479 70.1928 99.2238C70.1539 99.2831 70.1023 99.3361 70.0392 99.3785C69.5397 99.7112 69.0191 100.026 68.4916 100.315C68.4092 100.361 68.3201 100.382 68.2324 100.382V100.382ZM47.7475 100.256C47.6574 100.256 47.5662 100.234 47.4823 100.186C47.0975 99.9677 46.7147 99.7356 46.3445 99.4951C46.2105 99.4082 46.0779 99.3192 45.9464 99.2302C45.7004 99.0627 45.6298 98.7268 45.8045 98.481C45.9088 98.3274 46.0783 98.2447 46.2506 98.2447C46.3551 98.2447 46.4608 98.2754 46.5538 98.339C46.6786 98.4238 46.805 98.5086 46.9323 98.5912C47.2842 98.8201 47.648 99.0394 48.0138 99.2471C48.273 99.3944 48.364 99.7239 48.2172 99.9825C48.2117 99.992 48.206 100.002 48.1999 100.011C48.0977 100.168 47.925 100.256 47.7475 100.256V100.256ZM72.0114 97.7255C71.8616 97.7255 71.7133 97.663 71.6067 97.5432C71.4097 97.3196 71.4308 96.9784 71.6533 96.7814C72.0819 96.4031 72.4986 96.0015 72.8919 95.5903C72.9979 95.4791 73.1399 95.4229 73.2817 95.4229C73.4159 95.4229 73.5502 95.4727 73.6546 95.5723C73.8454 95.7535 73.8729 96.0417 73.7344 96.2558C73.7168 96.2833 73.6956 96.3098 73.6723 96.3342C73.2578 96.7686 72.8192 97.1914 72.3679 97.5899C72.2656 97.6799 72.1378 97.7255 72.0114 97.7255ZM75.1136 94.2997C75.0042 94.2997 74.8941 94.2658 74.798 94.1969C74.5572 94.0221 74.5028 93.6851 74.6765 93.4435C75.0084 92.9847 75.3262 92.5036 75.6243 92.0088C75.7245 91.8414 75.9032 91.7481 76.0868 91.7481C76.1814 91.7481 76.2775 91.7735 76.3651 91.8255C76.62 91.9791 76.7019 92.3108 76.548 92.5651C76.4188 92.7802 76.2866 92.991 76.1518 93.1987C75.959 93.4965 75.757 93.7911 75.5515 94.0751C75.4463 94.2213 75.2811 94.2997 75.1136 94.2997V94.2997ZM77.3961 90.2773C77.3248 90.2773 77.2527 90.2636 77.1829 90.2339C76.9095 90.1152 76.7831 89.7984 76.901 89.525C76.9363 89.4434 76.971 89.3618 77.0049 89.2802C77.1363 89.6119 77.2739 89.9435 77.4159 90.2773C77.4095 90.2773 77.4032 90.2773 77.3961 90.2773Z" fill="url(#paint12_linear_2824_3414)"/>
<path d="M77.4157 90.2773C77.2738 89.9447 77.136 89.612 77.0046 89.2804C77.1904 88.8324 77.362 88.3757 77.5153 87.9189C77.5894 87.6927 77.8006 87.55 78.0265 87.55C78.0831 87.55 78.1409 87.5599 78.1975 87.5785C78.4799 87.673 78.6325 87.9793 78.5378 88.2615C78.3471 88.8302 78.1296 89.399 77.8917 89.9523C77.879 89.9809 77.8648 90.0083 77.8479 90.0325C77.7512 90.1818 77.588 90.2719 77.4157 90.2773V90.2773ZM78.7482 85.8558C78.7151 85.8558 78.6819 85.8525 78.648 85.8459C78.3549 85.791 78.1621 85.51 78.2172 85.2168C78.3224 84.6557 78.4051 84.0837 78.463 83.516C78.4912 83.2372 78.7249 83.0307 78.9982 83.0307C79.0167 83.0307 79.035 83.0318 79.054 83.034C79.3499 83.0637 79.5661 83.3283 79.5357 83.6247C79.475 84.222 79.3881 84.8248 79.2772 85.4155C79.2638 85.488 79.2369 85.5528 79.2003 85.611C79.1021 85.7614 78.9326 85.8558 78.7482 85.8558" fill="url(#paint13_linear_2824_3414)"/>
<path d="M79.0907 81.2312C78.802 81.2312 78.5632 81.0025 78.5526 80.7111C78.542 80.4342 78.5265 80.1518 78.5046 79.8727C78.4813 79.5756 78.7038 79.3167 79.0004 79.2931C79.0145 79.292 79.0286 79.292 79.0428 79.292C79.3216 79.292 79.5576 79.5072 79.5801 79.7897C79.6028 80.0834 79.6197 80.3804 79.6302 80.6719C79.6345 80.7873 79.602 80.8949 79.5435 80.9857C79.4517 81.127 79.2934 81.2245 79.1112 81.2301C79.1042 81.2312 79.0978 81.2312 79.0907 81.2312" fill="url(#paint14_linear_2824_3414)"/>
<path d="M72.7787 74.6833C72.7462 74.5807 72.6516 74.5108 72.5442 74.5084L69.4772 74.4408C68.7404 73.2117 67.8023 72.0911 66.6798 71.1357L67.1174 68.1009C67.1327 67.9947 67.0789 67.8898 66.9833 67.8415L63.7112 66.1576C63.6156 66.1082 63.4993 66.1251 63.4216 66.1986L61.2066 68.3192C59.7763 67.9609 58.3196 67.8488 56.8915 67.9634L55.054 65.5063C54.9896 65.4206 54.8775 65.3844 54.7752 65.417L51.2708 66.54C51.1684 66.5726 51.0981 66.6667 51.0956 66.7752L51.0283 69.8415C49.7995 70.5785 48.6794 71.5169 47.7235 72.6399L44.689 72.2021C44.5825 72.1864 44.478 72.2394 44.4288 72.3359L42.7448 75.6072C42.6956 75.7037 42.7125 75.8195 42.7868 75.8967L44.9067 78.1126C44.5487 79.542 44.4363 80.9991 44.5509 82.4273L42.094 84.2644C42.008 84.3295 41.9721 84.4417 42.005 84.5442L43.1279 88.0483C43.1606 88.1508 43.2549 88.2208 43.3623 88.2232L46.4296 88.2908C47.1663 89.5199 48.1044 90.6393 49.2269 91.5958L48.7893 94.6295C48.7739 94.7369 48.8278 94.8406 48.9235 94.8901L52.1955 96.574C52.2911 96.6234 52.4074 96.6065 52.4851 96.5317L54.7001 94.4124C56.1306 94.7706 57.5872 94.8828 59.0154 94.7682L60.8527 97.2253C60.9171 97.311 61.0291 97.3471 61.1316 97.3146L64.6361 96.1916C64.7385 96.159 64.8087 96.0637 64.8111 95.9564L64.8784 92.8901C66.1072 92.1519 67.2273 91.2147 68.1833 90.0917L71.218 90.5295C71.3239 90.5452 71.4285 90.4909 71.4779 90.3956L73.1622 87.1231C73.2109 87.0278 73.1946 86.912 73.1197 86.8336L70.9998 84.619C71.3578 83.1884 71.4701 81.7313 71.3557 80.3043L73.8126 78.466C73.8987 78.4021 73.9348 78.2899 73.9015 78.1874L72.7787 74.6833" fill="#91B3FA"/>
<path d="M55.1231 81.5434C55.1706 82.2995 55.5097 82.992 56.0781 83.4919C57.251 84.5268 59.0469 84.4146 60.081 83.2414C61.1158 82.0671 61.0023 80.2717 59.8292 79.2379C58.6562 78.2042 56.8604 78.3164 55.8262 79.4896C55.7325 79.5961 55.6477 79.7083 55.5719 79.8239C55.2424 80.3318 55.0845 80.9291 55.1231 81.5434ZM60.7282 83.8115C59.3794 85.3418 57.0375 85.4891 55.5072 84.1391C54.7661 83.4862 54.3238 82.584 54.2619 81.5967C54.1998 80.6117 54.5253 79.6596 55.179 78.9194C56.528 77.3892 58.8698 77.2419 60.3999 78.5907C61.7919 79.8183 62.0394 81.8665 61.0568 83.3786C60.9594 83.5282 60.8498 83.6733 60.7282 83.8115Z" fill="#BDD0FB"/>
<path d="M65.4953 86.3532C65.6642 86.093 65.8207 85.8247 65.9645 85.5446C66.0097 85.4568 66.0534 85.3689 66.096 85.2787C66.3049 84.8392 66.4784 84.3834 66.614 83.9182L66.6196 83.8983C66.6248 83.8807 66.6299 83.8631 66.6349 83.8444C66.6448 83.8092 66.6544 83.7741 66.664 83.7389C66.689 83.6464 66.6498 83.5515 66.5735 83.5022C66.555 83.4905 66.5342 83.4811 66.5117 83.4753C66.3967 83.4436 66.2786 83.5128 66.2475 83.6276C66.0881 84.2194 65.8638 84.7982 65.5809 85.3478C64.1764 88.0769 61.5127 89.7455 58.6612 90.0091C57.0751 90.1556 55.4308 89.8673 53.9125 89.0858C53.6462 88.9498 53.3889 88.7998 53.1413 88.6381C51.4746 87.5554 50.2414 85.9454 49.6267 84.026C48.9204 81.8231 49.1148 79.476 50.1738 77.4184C52.3612 73.1684 57.5945 71.4939 61.842 73.6792C62.104 73.814 62.358 73.9616 62.6033 74.121C63.6664 74.8124 64.5666 75.7287 65.2359 76.8067C65.2531 76.8348 65.2757 76.8571 65.3015 76.8735C65.3694 76.918 65.4595 76.9216 65.5328 76.8759C65.6339 76.8138 65.6655 76.6802 65.6023 76.5794C64.8997 75.4463 63.9548 74.4854 62.8386 73.7601C62.5811 73.5925 62.3144 73.4367 62.0396 73.2961C57.5801 71.0006 52.0845 72.7629 49.7901 77.2204C48.6782 79.3811 48.4743 81.8442 49.2157 84.1584C49.861 86.1727 51.1557 87.8624 52.9054 89.0002C53.1654 89.1689 53.4356 89.326 53.715 89.4701C55.8753 90.5821 58.3392 90.786 60.6527 90.0443C62.6674 89.3986 64.358 88.1038 65.4953 86.3532Z" fill="#BDD0FB"/>
<path d="M93.4578 57.8921C93.3638 57.8921 93.2706 57.853 93.2049 57.7762C93.0291 57.5708 92.8448 57.3692 92.6577 57.1751C92.5298 57.0428 92.5319 56.8324 92.6654 56.7039C92.7296 56.6421 92.8137 56.6106 92.8971 56.6106C92.9839 56.6106 93.0707 56.6446 93.1364 56.7127C93.3327 56.9155 93.5262 57.1272 93.7106 57.3414C93.8087 57.4574 93.815 57.6199 93.7367 57.7409C93.7198 57.7661 93.6992 57.79 93.6745 57.8114C93.6117 57.8656 93.5347 57.8921 93.4578 57.8921" fill="url(#paint15_linear_2824_3414)"/>
<path d="M69.8433 61.5735C69.8 61.5735 69.7559 61.5647 69.7135 61.547C69.544 61.4752 69.465 61.2799 69.5367 61.111C69.7352 60.6422 69.9629 60.176 70.2124 59.7261C70.2501 59.6581 70.2885 59.59 70.3273 59.5232C70.3853 59.4148 70.4977 59.3556 70.6134 59.3556C70.6712 59.3556 70.7298 59.3707 70.7828 59.401C70.9417 59.493 70.9961 59.6971 70.9042 59.8572C70.8676 59.9202 70.8315 59.9832 70.7955 60.0487C70.5566 60.4784 70.3394 60.9233 70.15 61.3706C70.1423 61.3895 70.133 61.4059 70.1226 61.4223C70.0604 61.518 69.9542 61.5735 69.8433 61.5735V61.5735ZM71.5702 58.5768C71.501 58.5768 71.4304 58.5554 71.3704 58.5101C71.2234 58.3992 71.196 58.1925 71.3047 58.0438C71.6606 57.5712 72.0483 57.1176 72.4571 56.6954C72.5229 56.6286 72.6097 56.5946 72.6966 56.5946C72.7799 56.5946 72.8639 56.6261 72.9282 56.6879C73.0447 56.8013 73.061 56.9777 72.9762 57.1088C72.9642 57.1264 72.9509 57.144 72.936 57.1592C72.5462 57.5624 72.1761 57.9946 71.8371 58.4445C71.7715 58.5315 71.6712 58.5768 71.5702 58.5768" fill="url(#paint16_linear_2824_3414)"/>
<path d="M91.6177 56.1086C91.5443 56.1086 91.4708 56.0845 91.4086 56.0348C91.047 55.7432 90.6664 55.4669 90.2773 55.2147C90.1954 55.1613 90.1121 55.1078 90.0279 55.0569C89.9426 55.0034 89.8897 54.9181 89.8748 54.8264C89.9765 54.6978 90.0767 54.5717 90.1791 54.4444C90.1904 54.4431 90.201 54.4431 90.2123 54.4431C90.2695 54.4431 90.3274 54.4584 90.3796 54.4902C90.4672 54.545 90.5541 54.5997 90.6403 54.6557C91.0484 54.9206 91.4475 55.2097 91.8267 55.5153C91.9609 55.6235 91.9892 55.8145 91.8974 55.9558C91.891 55.966 91.8846 55.9749 91.8776 55.9839C91.8111 56.0654 91.7151 56.1086 91.6177 56.1086" fill="url(#paint17_linear_2824_3414)"/>
<path d="M89.8745 54.8262C89.8624 54.7498 89.8765 54.6695 89.9203 54.5982C89.9789 54.5117 90.0765 54.4556 90.1788 54.4454C90.0765 54.5728 89.9761 54.6988 89.8745 54.8262" fill="url(#paint18_linear_2824_3414)"/>
<path d="M73.9771 56.0938C73.8796 56.0938 73.7829 56.0505 73.7173 55.969C73.6022 55.8263 73.6247 55.6162 73.7681 55.5003C74.2264 55.1323 74.7136 54.7872 75.2151 54.4778C75.2701 54.4446 75.3302 54.4281 75.3902 54.4281C75.5018 54.4281 75.6105 54.4841 75.6734 54.586C75.7433 54.6993 75.7376 54.8381 75.6699 54.9426C75.6438 54.9833 75.6091 55.0177 75.5653 55.0444C75.0873 55.3399 74.6232 55.6684 74.1854 56.0199C74.124 56.0696 74.0505 56.0938 73.9771 56.0938" fill="url(#paint19_linear_2824_3414)"/>
<path d="M88.6781 54.2856C88.6315 54.2856 88.5842 54.2754 88.539 54.2549C88.0277 54.0177 87.498 53.8112 86.9634 53.6394C86.7876 53.583 86.6916 53.3958 86.7481 53.2201C86.7933 53.0803 86.9239 52.9893 87.0651 52.9893C87.0991 52.9893 87.133 52.9944 87.1669 53.0047C87.7269 53.1855 88.2826 53.4022 88.8186 53.6496C88.9853 53.7266 89.058 53.9253 88.9811 54.092C88.974 54.1061 88.9662 54.1202 88.9578 54.1343C88.8949 54.2292 88.789 54.2856 88.6781 54.2856" fill="url(#paint20_linear_2824_3414)"/>
<path d="M76.917 54.2778C76.7913 54.2778 76.6706 54.2045 76.614 54.0824C76.5377 53.9152 76.6105 53.7171 76.7778 53.6413C77.3132 53.3957 77.8696 53.1809 78.4317 53.0022C78.4649 52.9919 78.4988 52.9867 78.532 52.9867C78.674 52.9867 78.8046 53.0767 78.8499 53.2182C78.8809 53.3172 78.8639 53.4201 78.8117 53.5011C78.7715 53.5641 78.7094 53.613 78.633 53.6374C78.097 53.8072 77.5666 54.0129 77.0553 54.247C77.0108 54.2676 76.9636 54.2778 76.917 54.2778V54.2778ZM83.3405 52.6061C83.3638 52.5096 83.4289 52.4299 83.5143 52.3862C83.4564 52.4595 83.3984 52.5328 83.3405 52.6061Z" fill="url(#paint21_linear_2824_3414)"/>
<path d="M85.3851 53.2302C85.3646 53.2302 85.344 53.2289 85.323 53.2251C84.7707 53.1209 84.2056 53.0514 83.6442 53.0167C83.4607 53.0051 83.3209 52.8469 83.3322 52.663C83.3336 52.6437 83.3363 52.6244 83.3405 52.6064C83.3986 52.5331 83.4564 52.4598 83.5143 52.3865C83.5596 52.3633 83.6104 52.3505 83.664 52.3505C83.6711 52.3505 83.6782 52.3505 83.6852 52.3517C84.2742 52.3878 84.8667 52.4611 85.4458 52.5704C85.6266 52.6038 85.7459 52.7788 85.712 52.9588C85.7035 53.0026 85.6873 53.0437 85.6641 53.0784C85.6032 53.1723 85.4988 53.2302 85.3851 53.2302Z" fill="url(#paint22_linear_2824_3414)"/>
<path d="M80.2122 53.2302C80.0554 53.2302 79.9156 53.1183 79.8852 52.9588C79.852 52.7788 79.9706 52.6038 80.1514 52.5691C80.7298 52.4611 81.3223 52.3878 81.9113 52.3505C81.9184 52.3505 81.9254 52.3505 81.9324 52.3505C82.107 52.3505 82.2539 52.4868 82.2644 52.663C82.2686 52.7376 82.2488 52.8071 82.2114 52.8649C82.1556 52.9498 82.0625 53.009 81.9522 53.0167C81.3908 53.0514 80.8258 53.1209 80.2743 53.2251C80.2538 53.2289 80.2326 53.2302 80.2122 53.2302" fill="url(#paint23_linear_2824_3414)"/>
<path d="M82.7776 81.1016C82.3545 81.1016 81.9302 81.0837 81.51 81.0458C81.4817 80.8241 81.4549 80.5979 81.4301 80.3695C81.8744 80.4129 82.3242 80.4363 82.772 80.4363C82.8242 80.4363 82.8757 80.4352 82.9281 80.4341C82.9294 80.4341 82.9309 80.4341 82.9315 80.4341C83.1145 80.4341 83.2628 80.5812 83.2649 80.7639C83.2656 80.833 83.2459 80.8965 83.2112 80.9489C83.1526 81.0392 83.0516 81.0993 82.9358 81.1016C82.8828 81.1016 82.8299 81.1016 82.7776 81.1016V81.1016ZM81.0375 80.9556C80.9415 80.8876 80.8842 80.7717 80.8984 80.6458C80.9062 80.5745 80.9358 80.5121 80.9803 80.462C80.998 80.628 81.0177 80.7929 81.0375 80.9556" fill="url(#paint24_linear_2824_3414)"/>
<path d="M81.5104 81.0452C81.4044 81.0363 81.2985 81.0251 81.1932 81.014C81.1354 81.0073 81.0825 80.9872 81.0379 80.9549C81.0182 80.7922 80.9984 80.6273 80.9807 80.4612C81.0421 80.3921 81.1326 80.3498 81.23 80.3498C81.242 80.3498 81.2541 80.3509 81.2668 80.3509C81.3212 80.3576 81.3762 80.3631 81.4306 80.3687C81.4553 80.5972 81.4821 80.8234 81.5104 81.0452" fill="url(#paint25_linear_2824_3414)"/>
<path d="M84.6317 80.9783C84.4678 80.9783 84.3245 80.8568 84.3026 80.69C84.2778 80.5078 84.4064 80.3398 84.5886 80.3148C85.1359 80.2422 85.6854 80.135 86.2221 79.9968C86.2503 79.9897 86.2778 79.9861 86.3053 79.9861C86.4537 79.9861 86.5893 80.0861 86.6281 80.2362C86.6521 80.3303 86.6337 80.4256 86.5843 80.5006C86.5406 80.5685 86.4728 80.6209 86.3887 80.6412C85.8266 80.7865 85.2503 80.8997 84.6761 80.9759C84.6614 80.9783 84.6465 80.9783 84.6317 80.9783V80.9783ZM87.9261 80.1266C87.7934 80.1266 87.6669 80.0468 87.616 79.9146C87.5483 79.7443 87.6331 79.5501 87.8046 79.4834C88.3195 79.2821 88.8273 79.0463 89.3138 78.7831C89.364 78.7569 89.4176 78.7438 89.4713 78.7438C89.5899 78.7438 89.7043 78.8081 89.765 78.9188C89.8243 79.0296 89.8152 79.1595 89.751 79.2583C89.7213 79.3036 89.6803 79.3429 89.6302 79.3703C89.1196 79.6454 88.5871 79.892 88.0476 80.104C88.0073 80.1195 87.9663 80.1266 87.9261 80.1266V80.1266ZM90.919 78.5127C90.8145 78.5127 90.7121 78.4639 90.647 78.3721C90.5404 78.2221 90.5758 78.0148 90.7262 77.9076C91.1767 77.5884 91.6124 77.2382 92.0235 76.8654C92.0871 76.8082 92.1675 76.7796 92.2473 76.7796C92.3377 76.7796 92.4281 76.8165 92.4938 76.888C92.5976 77.0024 92.6068 77.1703 92.5262 77.293C92.5115 77.3168 92.4924 77.3395 92.4712 77.3597C92.0411 77.7492 91.5835 78.1172 91.1111 78.4519C91.0532 78.4936 90.9854 78.5127 90.919 78.5127V78.5127ZM93.4352 76.2234C93.3582 76.2234 93.2806 76.1972 93.2177 76.1436C93.0786 76.0233 93.0644 75.8136 93.1824 75.6731C93.5425 75.255 93.8808 74.8095 94.1887 74.3498C94.253 74.2521 94.3582 74.2009 94.4655 74.2009C94.5298 74.2009 94.594 74.2199 94.6506 74.2581C94.8023 74.3581 94.844 74.563 94.7451 74.7154L94.7423 74.719C94.4196 75.2026 94.0651 75.6695 93.688 76.1078C93.6216 76.1853 93.5284 76.2234 93.4352 76.2234V76.2234ZM95.3257 73.3957C95.2755 73.3957 95.224 73.3838 95.1753 73.3588C95.0115 73.2766 94.9457 73.0765 95.0291 72.9121C95.279 72.419 95.5022 71.9044 95.6915 71.3851C95.7409 71.2505 95.8687 71.166 96.005 71.166C96.0425 71.166 96.0806 71.1719 96.118 71.1862C96.2911 71.2493 96.3801 71.4399 96.3172 71.6126C96.1194 72.157 95.8856 72.6965 95.623 73.2135C95.6173 73.2242 95.6117 73.2337 95.6054 73.2444C95.5425 73.3409 95.4359 73.3957 95.3257 73.3957ZM96.4881 70.1976C96.4633 70.1976 96.4387 70.1952 96.4132 70.1893C96.2338 70.1476 96.1223 69.9689 96.1632 69.7902C96.2875 69.2507 96.3801 68.698 96.4372 68.1489C96.4556 67.9774 96.6004 67.8499 96.7685 67.8499C96.7804 67.8499 96.7917 67.8499 96.803 67.8511C96.986 67.8714 97.1194 68.0345 97.0996 68.218C97.0396 68.7945 96.9429 69.3733 96.8129 69.9391C96.8037 69.9784 96.7882 70.0142 96.767 70.0463C96.7063 70.1392 96.601 70.1976 96.4881 70.1976Z" fill="url(#paint26_linear_2824_3414)"/>
<path d="M96.8427 66.7979C96.6612 66.7979 96.5129 66.653 96.5092 66.4708C96.5043 66.1993 96.4909 65.9254 96.4705 65.6599C96.4563 65.4765 96.5941 65.316 96.7769 65.3015C96.7855 65.3003 96.7939 65.3003 96.8031 65.3003C96.9754 65.3003 97.1208 65.433 97.1349 65.608C97.1569 65.8868 97.1703 66.1728 97.176 66.4588C97.1767 66.5275 97.1569 66.5915 97.1223 66.6458C97.0636 66.7351 96.9633 66.7954 96.8489 66.7979C96.8469 66.7979 96.8447 66.7979 96.8427 66.7979" fill="url(#paint27_linear_2824_3414)"/>
<path d="M92.6118 62.1887C92.5891 62.1192 92.5263 62.0724 92.4543 62.0712L90.402 62.0257C89.9092 61.2041 89.2813 60.4545 88.5299 59.8149L88.823 57.7836C88.8336 57.7129 88.7976 57.6433 88.7333 57.6105L86.5441 56.483C86.4798 56.4501 86.4022 56.4615 86.3499 56.5108L84.8675 57.9303C83.9107 57.6901 82.9361 57.6155 81.9799 57.6914L80.7504 56.0482C80.7073 55.99 80.6325 55.966 80.564 55.9875L78.2193 56.7396C78.1508 56.7611 78.1036 56.8243 78.1022 56.8963L78.0569 58.9491C77.2349 59.442 76.485 60.069 75.8452 60.8211L73.8149 60.5278C73.7435 60.5177 73.6736 60.5531 73.6411 60.6176L72.514 62.8068C72.4809 62.8713 72.4921 62.9484 72.5423 63.0002L73.9603 64.4829C73.7209 65.4398 73.646 66.4143 73.7224 67.3712L72.0783 68.5998C72.0211 68.6428 71.9971 68.7186 72.019 68.7869L72.7703 71.1316C72.7923 71.1999 72.8551 71.2466 72.9272 71.2492L74.9793 71.2934C75.473 72.1163 76.1001 72.8658 76.8514 73.5054L76.5584 75.5354C76.5486 75.6075 76.5846 75.677 76.6481 75.7099L78.838 76.8361C78.9015 76.8702 78.98 76.8589 79.0315 76.8096L80.5138 75.3901C81.4708 75.6302 82.446 75.7048 83.4015 75.6277L84.6309 77.2722C84.674 77.3303 84.7489 77.3543 84.8174 77.3316L87.1627 76.5808C87.2313 76.558 87.2778 76.4948 87.2799 76.424L87.3252 74.3713C88.1471 73.8783 88.8965 73.2501 89.5363 72.4993L91.5666 72.7925C91.6378 72.8026 91.7077 72.7672 91.741 72.7028L92.8674 70.5122C92.9006 70.449 92.8892 70.3707 92.8398 70.3189L91.4211 68.8374C91.6605 67.8793 91.7361 66.9048 91.6591 65.9492L93.3031 64.7193C93.3609 64.6763 93.3851 64.6017 93.3631 64.5335L92.6118 62.1887" fill="#91B3FA"/>
<path d="M81.465 68.0498C81.8365 68.378 82.3132 68.5409 82.8076 68.5093C83.3011 68.4789 83.7538 68.2565 84.0809 67.8857C84.4079 67.5137 84.5717 67.0372 84.5406 66.5436C84.5095 66.0489 84.2878 65.5967 83.9163 65.2696C83.15 64.5938 81.9763 64.6679 81.3006 65.4338C81.2398 65.503 81.1847 65.576 81.136 65.6501C80.6438 66.4087 80.7674 67.4347 81.465 68.0498V68.0498ZM84.5809 68.3258C84.1359 68.8315 83.5208 69.1317 82.8493 69.1743C82.1777 69.2168 81.5294 68.9956 81.0244 68.5494C79.9828 67.6304 79.8825 66.0379 80.8006 64.9937C81.7201 63.9507 83.3154 63.851 84.3569 64.77C84.8619 65.2149 85.1635 65.8301 85.2058 66.5011C85.2397 67.0469 85.0999 67.5781 84.8068 68.0279C84.7397 68.1325 84.6641 68.2309 84.5809 68.3258" fill="#BDD0FB"/>
<path d="M87.8992 70.0948C88.0136 69.919 88.1202 69.7345 88.2191 69.5439C88.4148 69.1637 88.5722 68.7638 88.6866 68.3528C88.6915 68.3354 88.6964 68.3169 88.7014 68.2983C88.7403 68.1547 88.6795 68.0086 88.5616 67.9318C88.5334 67.9132 88.5008 67.8996 88.4663 67.8897C88.289 67.8414 88.1068 67.9479 88.0581 68.1249C87.9549 68.5088 87.8096 68.8839 87.6266 69.238C87.6167 69.2578 87.6061 69.2777 87.5962 69.2962C87.1556 70.132 86.5235 70.8265 85.758 71.3379C85.342 71.614 84.8858 71.8369 84.3992 71.9978L84.3872 72.0015C84.3752 72.0053 84.3632 72.009 84.3512 72.0139C82.9248 72.4708 81.405 72.3445 80.0731 71.6586C79.9007 71.5707 79.7341 71.4741 79.5738 71.3689C78.4947 70.6681 77.6968 69.6256 77.2985 68.3837C76.8415 66.9562 76.9673 65.437 77.6529 64.106C78.3386 62.775 79.5017 61.7882 80.9283 61.3313C82.3549 60.8732 83.8745 60.9995 85.2064 61.6854C85.3759 61.7721 85.5404 61.8674 85.6994 61.9714C86.3872 62.4184 86.9705 63.0115 87.4035 63.7098C87.4303 63.7519 87.4649 63.7878 87.5051 63.8125C87.6096 63.8806 87.7488 63.8868 87.8618 63.8175C88.0178 63.7197 88.0666 63.5142 87.969 63.3581C87.4847 62.5769 86.8328 61.9133 86.063 61.4131C85.8851 61.2967 85.7008 61.1902 85.5115 61.0924C84.0208 60.326 82.3209 60.1848 80.7249 60.6962C79.1289 61.2075 77.8266 62.3095 77.0605 63.8002C76.2935 65.2909 76.1522 66.9908 76.6643 68.5868C77.1091 69.976 78.0026 71.1423 79.2094 71.9273C79.3888 72.0436 79.5752 72.1513 79.768 72.2516C82.6535 73.7362 86.1675 72.7605 87.8992 70.0948" fill="#BDD0FB"/>
<path d="M161.201 92.7082L151.514 102.616L163.134 99.5131L161.201 92.7082" fill="#91B3FA"/>
<path d="M218.841 96.8101L163.797 99.4812C162.384 99.5493 161.201 98.422 161.201 97.0075V74.3629C161.201 71.9014 163.156 69.8852 165.616 69.8089L215.224 68.2732C218.917 68.2732 221.912 71.2684 221.912 74.9619V93.5862C221.912 95.3071 220.56 96.7257 218.841 96.8101" fill="#91B3FA"/>
<path d="M165.444 98.5715C164.568 98.5715 163.74 98.2406 163.1 97.6316C162.421 96.982 162.046 96.1086 162.046 95.1687V74.7586C162.046 72.354 163.975 70.4119 166.437 70.3373L214.468 68.8861C218.108 68.8861 221.067 71.7749 221.067 75.3255V92.9214C221.067 94.6154 219.711 96.0055 217.979 96.0869L165.611 98.5675C165.555 98.5702 165.499 98.5715 165.444 98.5715ZM214.472 69.1248L166.443 70.576C164.112 70.6465 162.285 72.4829 162.285 74.7586V95.1687C162.285 96.0421 162.632 96.8545 163.266 97.4581C163.86 98.025 164.626 98.3328 165.441 98.3328C165.494 98.3328 165.547 98.3315 165.6 98.3288L217.968 95.8482C219.573 95.7736 220.829 94.4879 220.829 92.9214V75.3255C220.829 71.9065 217.976 69.1248 214.472 69.1248" fill="#EFF4FE"/>
<path d="M214.312 73.253L170.299 74.9001C169.866 74.9173 169.525 75.2037 169.541 75.5389L169.557 75.9256C169.571 76.2582 169.928 76.5129 170.355 76.4971L214.37 74.8896C214.803 74.8737 215.143 74.5873 215.129 74.2508L215.11 73.8245C215.096 73.4919 214.739 73.2372 214.312 73.253" fill="url(#paint28_linear_2824_3414)"/>
<path d="M210.371 84.3975L166.359 86.0353C165.926 86.0521 165.586 86.3475 165.602 86.6961L165.619 87.0964C165.633 87.4398 165.991 87.7041 166.418 87.6886L210.432 86.0923C210.865 86.0767 211.206 85.78 211.19 85.4328L211.171 84.9897C211.157 84.645 210.8 84.3807 210.371 84.3975" fill="url(#paint29_linear_2824_3414)"/>
<path d="M215.514 89.0576L166.448 90.9099C165.967 90.9285 165.586 91.2299 165.602 91.5804L165.62 91.9854C165.634 92.332 166.031 92.5975 166.508 92.5803L215.573 90.7692C216.057 90.7519 216.436 90.4505 216.422 90.1L216.403 89.6538C216.389 89.3059 215.99 89.0404 215.514 89.0576" fill="url(#paint30_linear_2824_3414)"/>
<path d="M190.179 79.8231L166.19 80.5226C165.955 80.5296 165.778 80.8525 165.798 81.242L165.82 81.6923C165.839 82.0784 166.043 82.3848 166.277 82.3778L190.267 81.7251C190.503 81.7193 190.68 81.3952 190.661 81.0057L190.635 80.5086C190.616 80.1226 190.413 79.8161 190.179 79.8231Z" fill="url(#paint31_linear_2824_3414)"/>
<path d="M216.613 78.9946L193.938 79.6432C193.716 79.6498 193.55 79.9734 193.569 80.3637L193.592 80.8125C193.612 81.2 193.805 81.5063 194.025 81.4996L216.701 80.8964C216.924 80.891 217.089 80.5674 217.071 80.1772L217.046 79.6805C217.027 79.2942 216.832 78.9879 216.613 78.9946" fill="url(#paint32_linear_2824_3414)"/>
<path d="M77.6248 221.708C77.6248 221.708 77.1714 224.276 76.949 226.819C76.8614 227.812 77.6276 228.675 78.6248 228.717C82.0103 228.858 89.2531 229.132 91.8519 229.016C92.2424 228.999 92.4981 228.599 92.3533 228.235C92.2318 227.931 91.9981 227.684 91.7008 227.548L79.737 222.05L77.6248 221.708" fill="url(#paint33_linear_2824_3414)"/>
<path d="M77.2532 220.199L77.6176 223.271C77.6176 223.271 79.7129 224.247 81.1443 223.148L80.2764 219.724L77.2532 220.199Z" fill="url(#paint34_linear_2824_3414)"/>
<path d="M77.5273 162.44C77.3699 163.242 76.682 202.477 80.8761 220.058C80.9439 220.345 80.7985 220.641 80.5259 220.752C79.8825 221.015 78.6213 221.396 77.11 221.446C76.6425 221.462 76.2223 221.158 76.0902 220.709C74.8918 216.629 69.1474 196.191 68.398 176.666C67.5607 154.85 68.398 175.923 68.398 175.923L68.8891 162.438L77.5273 162.44" fill="url(#paint35_linear_2824_3414)"/>
<path d="M63.863 223.047C63.863 223.047 63.1407 224.345 62.4415 227.79C62.3153 228.412 62.7501 229.008 63.382 229.07C64.4999 229.18 66.2211 229.321 67.5997 229.311C68.2353 229.307 68.7314 228.754 68.6547 228.123C68.5021 226.865 68.0263 224.802 66.5565 223.194L63.863 223.047" fill="url(#paint36_linear_2824_3414)"/>
<path d="M63.2288 219.096L64.0805 223.742C64.0805 223.742 64.9227 224.369 66.5886 223.915L66.1821 218.916L63.2288 219.096Z" fill="url(#paint37_linear_2824_3414)"/>
<path d="M60.9278 163.644C57.4978 184.344 61.6719 214.806 63.0796 220.769C63.1657 221.134 63.4603 221.413 63.8303 221.474C64.4587 221.579 65.4932 221.663 66.5132 221.367C66.8645 221.265 67.1114 220.948 67.1257 220.583C67.3146 215.762 66.9747 186.17 70.1707 174.476C70.3326 173.883 70.6949 173.366 71.1956 173.01L77.3981 168.601L77.8741 161.473L60.9278 163.644" fill="url(#paint38_linear_2824_3414)"/>
<path d="M82.7836 124.421C72.5048 124.251 61.163 127.12 61.163 127.12C58.0991 144.998 60.6272 165.62 60.6272 165.62C68.585 167.706 77.5618 164.343 77.5618 164.343C78.8846 156.87 85.0554 135.84 85.0554 135.84C90.0779 135.217 94.2147 133.768 97.6219 131.852C95.0229 128.84 93.7978 125.007 93.2655 122.741C89.6311 123.871 85.954 124.473 82.7836 124.421" fill="url(#paint39_linear_2824_3414)"/>
<path d="M113.146 109.28C112.137 108.06 110.859 108.637 110.859 108.637C109.346 115.027 101.414 120.208 93.2659 122.74C93.7983 125.007 95.024 128.839 97.6222 131.851C111.145 124.248 113.146 109.28 113.146 109.28Z" fill="url(#paint40_linear_2824_3414)"/>
<path d="M112.901 109.59C113.007 109.926 111.783 110.438 111.062 109.064C111.037 108.406 110.637 105.586 111.03 105.048C113.126 102.192 117.188 98.611 117.188 98.611C117.876 99.2886 117.309 99.9542 117.309 99.9542L115.339 102.007C115.751 102.752 116.254 103.38 116.489 104.281C116.668 104.964 116.559 105.694 116.214 106.314C115.868 106.938 115.396 107.748 114.95 108.382C114.106 109.582 112.901 109.59 112.901 109.59" fill="url(#paint41_linear_2824_3414)"/>
<path d="M114.477 103.339L112.681 104.861L112.117 106.377L113.718 108.154C113.718 108.154 114.257 105.146 114.657 104.495C115.057 103.844 114.849 103.529 114.477 103.339" fill="url(#paint42_linear_2824_3414)"/>
<path d="M65.1058 137.072L61.1631 127.119C61.1631 127.119 51.5619 133.643 49.9829 141.914C51.7971 142.048 55.0983 142.521 58.3295 144.151C59.0395 140.246 65.1058 137.072 65.1058 137.072" fill="url(#paint43_linear_2824_3414)"/>
<path d="M73.4963 146.439C73.4963 146.439 62.7163 152.531 59.079 147.329C58.3239 146.249 58.1433 145.175 58.3293 144.152C55.0981 142.52 51.7969 142.048 49.9828 141.914C49.5067 144.408 49.7584 147.06 51.2237 149.741C57.5949 161.395 74.9231 149.097 74.9231 149.097L73.4963 146.439" fill="url(#paint44_linear_2824_3414)"/>
<path d="M72.2002 154.146L78.0834 133.601C78.1506 133.367 78.349 133.197 78.5905 133.169C79.6561 133.045 82.7454 132.696 86.3104 132.395C90.6067 132.03 95.5951 131.736 98.576 131.987C98.9996 132.022 99.2561 132.471 99.0675 132.852C97.3717 136.281 90.3998 150.231 86.9082 154.802C86.7923 154.954 86.6125 155.042 86.4231 155.039L72.7728 154.913C72.3753 154.909 72.0914 154.528 72.2002 154.146" fill="#91B3FA"/>
<path d="M86.9223 130.612L91.1872 129.902C91.4141 129.864 91.6006 130.081 91.5276 130.299L91.1061 131.579C91.0696 131.691 90.9723 131.771 90.8556 131.786L86.7513 132.335C86.5389 132.364 86.3638 132.17 86.4132 131.962L86.6743 130.844C86.7026 130.724 86.7999 130.633 86.9223 130.612" fill="#BDD0FB"/>
<path d="M83.7276 134.223L84.0792 132.393C84.1145 132.209 84.2663 132.071 84.4517 132.052L93.067 131.178C93.3569 131.148 93.5897 131.415 93.5214 131.697L92.9731 133.978C92.9298 134.161 92.7708 134.293 92.5838 134.302L84.1651 134.726C83.8914 134.74 83.6762 134.492 83.7276 134.223Z" fill="#BDD0FB"/>
<path d="M73.6221 149.182C73.6221 149.182 72.8028 145.812 73.1332 144.617C73.4637 143.421 74.1043 141.884 76.2392 142.225C78.374 142.567 80.8926 143.467 80.8926 143.467C80.8926 143.467 80.7654 145.024 79.143 144.521L80.1487 145.3C80.1487 145.3 80.0053 146.546 78.6343 145.88L79.5701 146.913C79.5701 146.913 78.982 147.937 77.9734 147.28C76.9648 146.624 76.481 149.588 73.6221 149.182" fill="url(#paint45_linear_2824_3414)"/>
<path d="M72.3722 116.076L69.1016 125.534C69.0474 125.691 69.1118 125.864 69.2569 125.945C70.1484 126.438 73.3602 127.862 77.2309 125.409C77.6341 125.152 77.9089 124.735 77.9703 124.262L79.0296 116.076H72.3722" fill="url(#paint46_linear_2824_3414)"/>
<path d="M79.4886 107.317C79.4886 107.317 83.0803 114.077 82.6198 116.808C82.1594 119.54 77.7082 119.343 73.8213 117.125L71.1052 109.825L79.4886 107.317" fill="url(#paint47_linear_2824_3414)"/>
<path d="M73.9925 113.541C74.1507 113.472 74.2086 113.278 74.1147 113.133C73.8265 112.693 73.287 111.797 73.1154 111.012C73.1154 111.012 72.4692 110.599 74.7588 110.05C77.0475 109.502 80.4606 108.652 81.178 106.704C81.8779 104.804 80.0397 100.027 77.1075 103.834C76.996 103.979 76.7778 103.982 76.6661 103.837C76.1853 103.211 74.9219 101.912 73.167 102.7C71.525 103.436 71.3401 104.64 71.3626 105.246C71.3696 105.424 71.2101 105.563 71.0343 105.53C70.2044 105.371 68.2123 105.236 67.2824 107.278C66.5166 108.962 67.0144 109.914 67.4677 110.38C67.6146 110.532 67.5502 110.781 67.3488 110.842C66.8033 111.009 66.0987 111.472 66.1692 112.75C66.2667 114.517 68.2425 114.362 68.8049 114.281C68.8972 114.268 68.9899 114.3 69.0524 114.368C69.5347 114.902 71.7079 117.168 74.0597 117.441C74.2637 117.465 74.4212 117.264 74.3548 117.07L73.3365 114.112C73.2892 113.974 73.3549 113.823 73.4883 113.764L73.9925 113.541" fill="url(#paint48_linear_2824_3414)"/>
<path d="M74.4024 113.961C74.4024 113.961 71.8453 112.206 71.6581 113.684C71.4717 115.161 73.9611 115.824 75.1941 115.273L74.4024 113.961" fill="url(#paint49_linear_2824_3414)"/>
<defs>
<linearGradient id="paint0_linear_2824_3414" x1="501.427" y1="312.692" x2="156.789" y2="-115.326" gradientUnits="userSpaceOnUse">
<stop stop-color="#DAE3FE"/>
<stop offset="1" stop-color="#E9EFFD"/>
</linearGradient>
<linearGradient id="paint1_linear_2824_3414" x1="743.98" y1="-452.833" x2="29.5143" y2="156.15" gradientUnits="userSpaceOnUse">
<stop stop-color="#E1473D"/>
<stop offset="1" stop-color="#E9605A"/>
</linearGradient>
<linearGradient id="paint2_linear_2824_3414" x1="582.111" y1="-144.686" x2="91.7719" y2="273.26" gradientUnits="userSpaceOnUse">
<stop stop-color="#E1473D"/>
<stop offset="1" stop-color="#E9605A"/>
</linearGradient>
<linearGradient id="paint3_linear_2824_3414" x1="78.2769" y1="124.596" x2="708.833" y2="-543.138" gradientUnits="userSpaceOnUse">
<stop stop-color="#FF928E"/>
<stop offset="1" stop-color="#FE7062"/>
</linearGradient>
<linearGradient id="paint4_linear_2824_3414" x1="216.747" y1="142.95" x2="124.164" y2="245.253" gradientUnits="userSpaceOnUse">
<stop stop-color="#FF928E"/>
<stop offset="1" stop-color="#FE7062"/>
</linearGradient>
<linearGradient id="paint5_linear_2824_3414" x1="76.422" y1="127.852" x2="692.037" y2="-524.059" gradientUnits="userSpaceOnUse">
<stop stop-color="#FFD7D5"/>
<stop offset="1" stop-color="#FFCAC5"/>
</linearGradient>
<linearGradient id="paint6_linear_2824_3414" x1="59.4082" y1="157.717" x2="537.969" y2="-349.059" gradientUnits="userSpaceOnUse">
<stop stop-color="#FFD7D5"/>
<stop offset="1" stop-color="#FFCAC5"/>
</linearGradient>
<linearGradient id="paint7_linear_2824_3414" x1="199.817" y1="152.248" x2="114.466" y2="246.561" gradientUnits="userSpaceOnUse">
<stop stop-color="#FFD7D5"/>
<stop offset="1" stop-color="#FFCAC5"/>
</linearGradient>
<linearGradient id="paint8_linear_2824_3414" x1="182.05" y1="162.007" x2="104.287" y2="247.934" gradientUnits="userSpaceOnUse">
<stop stop-color="#FFD7D5"/>
<stop offset="1" stop-color="#FFCAC5"/>
</linearGradient>
<linearGradient id="paint9_linear_2824_3414" x1="436.631" y1="306.141" x2="136.529" y2="-66.5671" gradientUnits="userSpaceOnUse">
<stop stop-color="#C4D5FD"/>
<stop offset="1" stop-color="#CEDDFC"/>
</linearGradient>
<linearGradient id="paint10_linear_2824_3414" x1="441.353" y1="306.618" x2="138.005" y2="-70.1209" gradientUnits="userSpaceOnUse">
<stop stop-color="#C4D5FD"/>
<stop offset="1" stop-color="#CEDDFC"/>
</linearGradient>
<linearGradient id="paint11_linear_2824_3414" x1="365.453" y1="298.945" x2="114.272" y2="-13.0053" gradientUnits="userSpaceOnUse">
<stop stop-color="#C4D5FD"/>
<stop offset="1" stop-color="#CEDDFC"/>
</linearGradient>
<linearGradient id="paint12_linear_2824_3414" x1="379.976" y1="300.414" x2="118.813" y2="-23.9339" gradientUnits="userSpaceOnUse">
<stop stop-color="#C4D5FD"/>
<stop offset="1" stop-color="#CEDDFC"/>
</linearGradient>
<linearGradient id="paint13_linear_2824_3414" x1="60.9444" y1="155.02" x2="551.88" y2="-364.86" gradientUnits="userSpaceOnUse">
<stop stop-color="#DE9CAF"/>
<stop offset="1" stop-color="#DD8490"/>
</linearGradient>
<linearGradient id="paint14_linear_2824_3414" x1="62.2175" y1="152.785" x2="563.409" y2="-377.955" gradientUnits="userSpaceOnUse">
<stop stop-color="#DE9CAF"/>
<stop offset="1" stop-color="#DD8490"/>
</linearGradient>
<linearGradient id="paint15_linear_2824_3414" x1="69.9413" y1="139.228" x2="633.352" y2="-457.4" gradientUnits="userSpaceOnUse">
<stop stop-color="#DE9CAF"/>
<stop offset="1" stop-color="#DD8490"/>
</linearGradient>
<linearGradient id="paint16_linear_2824_3414" x1="451.883" y1="307.683" x2="141.298" y2="-78.0445" gradientUnits="userSpaceOnUse">
<stop stop-color="#C4D5FD"/>
<stop offset="1" stop-color="#CEDDFC"/>
</linearGradient>
<linearGradient id="paint17_linear_2824_3414" x1="70.6794" y1="137.932" x2="640.034" y2="-464.991" gradientUnits="userSpaceOnUse">
<stop stop-color="#DE9CAF"/>
<stop offset="1" stop-color="#DD8490"/>
</linearGradient>
<linearGradient id="paint18_linear_2824_3414" x1="70.6787" y1="137.934" x2="640.036" y2="-464.982" gradientUnits="userSpaceOnUse">
<stop stop-color="#DECCE0"/>
<stop offset="1" stop-color="#DEC3D5"/>
</linearGradient>
<linearGradient id="paint19_linear_2824_3414" x1="456.649" y1="308.165" x2="142.789" y2="-81.6313" gradientUnits="userSpaceOnUse">
<stop stop-color="#C4D5FD"/>
<stop offset="1" stop-color="#CEDDFC"/>
</linearGradient>
<linearGradient id="paint20_linear_2824_3414" x1="71.1744" y1="137.063" x2="644.515" y2="-470.083" gradientUnits="userSpaceOnUse">
<stop stop-color="#DE9CAF"/>
<stop offset="1" stop-color="#DD8490"/>
</linearGradient>
<linearGradient id="paint21_linear_2824_3414" x1="461.142" y1="308.619" x2="144.194" y2="-85.0118" gradientUnits="userSpaceOnUse">
<stop stop-color="#C4D5FD"/>
<stop offset="1" stop-color="#CEDDFC"/>
</linearGradient>
<linearGradient id="paint22_linear_2824_3414" x1="71.3921" y1="136.682" x2="646.492" y2="-472.321" gradientUnits="userSpaceOnUse">
<stop stop-color="#DE9CAF"/>
<stop offset="1" stop-color="#DD8490"/>
</linearGradient>
<linearGradient id="paint23_linear_2824_3414" x1="461.22" y1="308.629" x2="144.215" y2="-85.0693" gradientUnits="userSpaceOnUse">
<stop stop-color="#C4D5FD"/>
<stop offset="1" stop-color="#CEDDFC"/>
</linearGradient>
<linearGradient id="paint24_linear_2824_3414" x1="61.8506" y1="153.43" x2="560.088" y2="-374.181" gradientUnits="userSpaceOnUse">
<stop stop-color="#DE9CAF"/>
<stop offset="1" stop-color="#DD8490"/>
</linearGradient>
<linearGradient id="paint25_linear_2824_3414" x1="61.8573" y1="153.418" x2="560.15" y2="-374.253" gradientUnits="userSpaceOnUse">
<stop stop-color="#DECCE0"/>
<stop offset="1" stop-color="#DEC3D5"/>
</linearGradient>
<linearGradient id="paint26_linear_2824_3414" x1="66.114" y1="145.946" x2="598.693" y2="-418.032" gradientUnits="userSpaceOnUse">
<stop stop-color="#DE9CAF"/>
<stop offset="1" stop-color="#DD8490"/>
</linearGradient>
<linearGradient id="paint27_linear_2824_3414" x1="66.982" y1="144.422" x2="606.553" y2="-426.967" gradientUnits="userSpaceOnUse">
<stop stop-color="#DE9CAF"/>
<stop offset="1" stop-color="#DD8490"/>
</linearGradient>
<linearGradient id="paint28_linear_2824_3414" x1="316.852" y1="-87.7169" x2="402.054" y2="-87.7169" gradientUnits="userSpaceOnUse">
<stop stop-color="#DAE3FE"/>
<stop offset="1" stop-color="#E9EFFD"/>
</linearGradient>
<linearGradient id="paint29_linear_2824_3414" x1="303.833" y1="-60.8325" x2="387.478" y2="-60.8325" gradientUnits="userSpaceOnUse">
<stop stop-color="#DAE3FE"/>
<stop offset="1" stop-color="#E9EFFD"/>
</linearGradient>
<linearGradient id="paint30_linear_2824_3414" x1="311.361" y1="-59.8522" x2="406.914" y2="-59.8522" gradientUnits="userSpaceOnUse">
<stop stop-color="#DAE3FE"/>
<stop offset="1" stop-color="#E9EFFD"/>
</linearGradient>
<linearGradient id="paint31_linear_2824_3414" x1="274.623" y1="-37.6383" x2="315.809" y2="-37.6383" gradientUnits="userSpaceOnUse">
<stop stop-color="#DAE3FE"/>
<stop offset="1" stop-color="#E9EFFD"/>
</linearGradient>
<linearGradient id="paint32_linear_2824_3414" x1="365.036" y1="-80.7551" x2="409.36" y2="-80.7551" gradientUnits="userSpaceOnUse">
<stop stop-color="#DAE3FE"/>
<stop offset="1" stop-color="#E9EFFD"/>
</linearGradient>
<linearGradient id="paint33_linear_2824_3414" x1="91.4727" y1="218.158" x2="47.6634" y2="265.81" gradientUnits="userSpaceOnUse">
<stop stop-color="#09005D"/>
<stop offset="1" stop-color="#1A0F91"/>
</linearGradient>
<linearGradient id="paint34_linear_2824_3414" x1="77.2532" y1="221.697" x2="81.1445" y2="221.697" gradientUnits="userSpaceOnUse">
<stop stop-color="#FEBBBA"/>
<stop offset="1" stop-color="#FF928E"/>
</linearGradient>
<linearGradient id="paint35_linear_2824_3414" x1="94.9225" y1="164.268" x2="57.645" y2="214.793" gradientUnits="userSpaceOnUse">
<stop stop-color="#09005D"/>
<stop offset="1" stop-color="#1A0F91"/>
</linearGradient>
<linearGradient id="paint36_linear_2824_3414" x1="81.6451" y1="209.123" x2="37.8358" y2="256.775" gradientUnits="userSpaceOnUse">
<stop stop-color="#09005D"/>
<stop offset="1" stop-color="#1A0F91"/>
</linearGradient>
<linearGradient id="paint37_linear_2824_3414" x1="63.2288" y1="221.497" x2="66.5886" y2="221.497" gradientUnits="userSpaceOnUse">
<stop stop-color="#FEBBBA"/>
<stop offset="1" stop-color="#FF928E"/>
</linearGradient>
<linearGradient id="paint38_linear_2824_3414" x1="88.2785" y1="159.367" x2="51.0011" y2="209.892" gradientUnits="userSpaceOnUse">
<stop stop-color="#09005D"/>
<stop offset="1" stop-color="#1A0F91"/>
</linearGradient>
<linearGradient id="paint39_linear_2824_3414" x1="90.8528" y1="110.638" x2="162.75" y2="-13.2332" gradientUnits="userSpaceOnUse">
<stop stop-color="#4F52FF"/>
<stop offset="1" stop-color="#4042E2"/>
</linearGradient>
<linearGradient id="paint40_linear_2824_3414" x1="146.793" y1="41.9914" x2="137.637" y2="68.15" gradientUnits="userSpaceOnUse">
<stop stop-color="#FEBBBA"/>
<stop offset="1" stop-color="#FF928E"/>
</linearGradient>
<linearGradient id="paint41_linear_2824_3414" x1="164.579" y1="30.7324" x2="154.834" y2="58.5762" gradientUnits="userSpaceOnUse">
<stop stop-color="#FEBBBA"/>
<stop offset="1" stop-color="#FF928E"/>
</linearGradient>
<linearGradient id="paint42_linear_2824_3414" x1="152.547" y1="54.6986" x2="159.675" y2="40.319" gradientUnits="userSpaceOnUse">
<stop stop-color="#FEBBBA"/>
<stop offset="1" stop-color="#FF928E"/>
</linearGradient>
<linearGradient id="paint43_linear_2824_3414" x1="73.5112" y1="106.99" x2="143.148" y2="-12.9862" gradientUnits="userSpaceOnUse">
<stop stop-color="#4F52FF"/>
<stop offset="1" stop-color="#4042E2"/>
</linearGradient>
<linearGradient id="paint44_linear_2824_3414" x1="51.9148" y1="143.424" x2="78.1607" y2="143.424" gradientUnits="userSpaceOnUse">
<stop stop-color="#FEBBBA"/>
<stop offset="1" stop-color="#FF928E"/>
</linearGradient>
<linearGradient id="paint45_linear_2824_3414" x1="76.0488" y1="140.933" x2="84.2079" y2="140.933" gradientUnits="userSpaceOnUse">
<stop stop-color="#FEBBBA"/>
<stop offset="1" stop-color="#FF928E"/>
</linearGradient>
<linearGradient id="paint46_linear_2824_3414" x1="87.575" y1="83.8138" x2="100.184" y2="83.8138" gradientUnits="userSpaceOnUse">
<stop stop-color="#FEBBBA"/>
<stop offset="1" stop-color="#FF928E"/>
</linearGradient>
<linearGradient id="paint47_linear_2824_3414" x1="109.377" y1="64.6156" x2="94.6809" y2="55.6519" gradientUnits="userSpaceOnUse">
<stop stop-color="#FEBBBA"/>
<stop offset="1" stop-color="#FF928E"/>
</linearGradient>
<linearGradient id="paint48_linear_2824_3414" x1="89.6636" y1="39.3424" x2="109.253" y2="54.8149" gradientUnits="userSpaceOnUse">
<stop stop-color="#09005D"/>
<stop offset="1" stop-color="#1A0F91"/>
</linearGradient>
<linearGradient id="paint49_linear_2824_3414" x1="101.578" y1="75.2012" x2="88.8491" y2="67.4374" gradientUnits="userSpaceOnUse">
<stop stop-color="#FEBBBA"/>
<stop offset="1" stop-color="#FF928E"/>
</linearGradient>
</defs>
</svg>
